<?xml version="1.0" encoding="UTF-8" standalone="no"?>
<!DOCTYPE svg PUBLIC "-//W3C//DTD SVG 1.1//EN"
 "http://www.w3.org/Graphics/SVG/1.1/DTD/svg11.dtd">
<!-- Generated by graphviz version 2.43.0 (0)
 -->
<!-- Title: ktos_hal_DisableInterrupts Pages: 1 -->
<svg width="488pt" height="132pt"
 viewBox="0.00 0.00 488.00 132.00" xmlns="http://www.w3.org/2000/svg" xmlns:xlink="http://www.w3.org/1999/xlink">
<g id="graph0" class="graph" transform="scale(1 1) rotate(0) translate(4 128)">
<title>ktos_hal_DisableInterrupts</title>
<polygon fill="white" stroke="transparent" points="-4,4 -4,-128 484,-128 484,4 -4,4"/>
<!-- Node1 -->
<g id="node1" class="node">
<title>Node1</title>
<g id="a_node1"><a xlink:title="Disable all maskable interrupts.">
<polygon fill="#bfbfbf" stroke="black" points="333,-57.5 333,-76.5 480,-76.5 480,-57.5 333,-57.5"/>
<text text-anchor="middle" x="406.5" y="-64.5" font-family="Helvetica,sans-Serif" font-size="10.00">ktos_hal_DisableInterrupts</text>
</a>
</g>
</g>
<!-- Node2 -->
<g id="node2" class="node">
<title>Node2</title>
<g id="a_node2"><a xlink:href="ktos_8c.html#abdccd1793b29f0ab71047c522a9fb262" target="_top" xlink:title=" ">
<polygon fill="white" stroke="black" points="77,-104.5 77,-123.5 164,-123.5 164,-104.5 77,-104.5"/>
<text text-anchor="middle" x="120.5" y="-111.5" font-family="Helvetica,sans-Serif" font-size="10.00">ktos_SendMsg</text>
</a>
</g>
</g>
<!-- Node1&#45;&gt;Node2 -->
<g id="edge1" class="edge">
<title>Node1&#45;&gt;Node2</title>
<path fill="none" stroke="midnightblue" d="M374.48,-80.53C353.13,-89.17 323.88,-99.72 297,-105 252.25,-113.8 199.91,-115.39 164.11,-115.19"/>
<polygon fill="midnightblue" stroke="midnightblue" points="376.08,-83.66 383.98,-76.6 373.41,-77.19 376.08,-83.66"/>
</g>
<!-- Node4 -->
<g id="node4" class="node">
<title>Node4</title>
<g id="a_node4"><a xlink:href="ktos_8c.html#a58c939684b243c872c31ec084dba395a" target="_top" xlink:title=" ">
<polygon fill="white" stroke="black" points="213.5,-76.5 213.5,-95.5 283.5,-95.5 283.5,-76.5 213.5,-76.5"/>
<text text-anchor="middle" x="248.5" y="-83.5" font-family="Helvetica,sans-Serif" font-size="10.00">ktos_Sleep</text>
</a>
</g>
</g>
<!-- Node1&#45;&gt;Node4 -->
<g id="edge3" class="edge">
<title>Node1&#45;&gt;Node4</title>
<path fill="none" stroke="midnightblue" d="M322.89,-77.06C309.06,-78.75 295.41,-80.41 283.71,-81.83"/>
<polygon fill="midnightblue" stroke="midnightblue" points="323.48,-80.52 332.98,-75.83 322.63,-73.57 323.48,-80.52"/>
</g>
<!-- Node5 -->
<g id="node5" class="node">
<title>Node5</title>
<g id="a_node5"><a xlink:href="ktos_8c.html#ae0e8182ad311d004e6d96f8d42a70501" target="_top" xlink:title="Round&#45;robin cooperative scheduler — runs on the OS stack.">
<polygon fill="white" stroke="black" points="200,-38.5 200,-57.5 297,-57.5 297,-38.5 200,-38.5"/>
<text text-anchor="middle" x="248.5" y="-45.5" font-family="Helvetica,sans-Serif" font-size="10.00">ktos_SwitchTask</text>
</a>
</g>
</g>
<!-- Node1&#45;&gt;Node5 -->
<g id="edge4" class="edge">
<title>Node1&#45;&gt;Node5</title>
<path fill="none" stroke="midnightblue" d="M323.04,-56.96C314.25,-55.89 305.53,-54.82 297.34,-53.83"/>
<polygon fill="midnightblue" stroke="midnightblue" points="322.63,-60.43 332.98,-58.17 323.48,-53.48 322.63,-60.43"/>
</g>
<!-- Node7 -->
<g id="node7" class="node">
<title>Node7</title>
<g id="a_node7"><a xlink:href="group__ktos__core.html#ga36de1d506ed25f7ec37016362726b45c" target="_top" xlink:title="Wake a sleeping task immediately from an ISR or another task.">
<polygon fill="white" stroke="black" points="207,-0.5 207,-19.5 290,-19.5 290,-0.5 207,-0.5"/>
<text text-anchor="middle" x="248.5" y="-7.5" font-family="Helvetica,sans-Serif" font-size="10.00">ktos_WakeUp</text>
</a>
</g>
</g>
<!-- Node1&#45;&gt;Node7 -->
<g id="edge7" class="edge">
<title>Node1&#45;&gt;Node7</title>
<path fill="none" stroke="midnightblue" d="M369.74,-53.93C341.07,-43.46 301.49,-28.99 275.7,-19.57"/>
<polygon fill="midnightblue" stroke="midnightblue" points="368.8,-57.31 379.39,-57.46 371.2,-50.74 368.8,-57.31"/>
</g>
<!-- Node3 -->
<g id="node3" class="node">
<title>Node3</title>
<g id="a_node3"><a xlink:href="ktos__multi_8c.html#ae66f6b31b5ad750f1fe042a706a4e3d4" target="_top" xlink:title=" ">
<polygon fill="white" stroke="black" points="0,-76.5 0,-95.5 41,-95.5 41,-76.5 0,-76.5"/>
<text text-anchor="middle" x="20.5" y="-83.5" font-family="Helvetica,sans-Serif" font-size="10.00">main</text>
</a>
</g>
</g>
<!-- Node2&#45;&gt;Node3 -->
<g id="edge2" class="edge">
<title>Node2&#45;&gt;Node3</title>
<path fill="none" stroke="midnightblue" d="M76.35,-101.67C64.04,-98.15 51.23,-94.5 41.1,-91.6"/>
<polygon fill="midnightblue" stroke="midnightblue" points="75.47,-105.06 86.05,-104.44 77.39,-98.33 75.47,-105.06"/>
</g>
<!-- Node6 -->
<g id="node6" class="node">
<title>Node6</title>
<g id="a_node6"><a xlink:href="group__ktos__core.html#ga6580b57b65ece0e7bfcc48823db105f3" target="_top" xlink:title="Start the KTOS scheduler. Never returns.">
<polygon fill="white" stroke="black" points="83,-57.5 83,-76.5 158,-76.5 158,-57.5 83,-57.5"/>
<text text-anchor="middle" x="120.5" y="-64.5" font-family="Helvetica,sans-Serif" font-size="10.00">ktos_RunOS</text>
</a>
</g>
</g>
<!-- Node5&#45;&gt;Node6 -->
<g id="edge5" class="edge">
<title>Node5&#45;&gt;Node6</title>
<path fill="none" stroke="midnightblue" d="M189.7,-56.72C178.98,-58.33 168.07,-59.98 158.2,-61.47"/>
<polygon fill="midnightblue" stroke="midnightblue" points="190.5,-60.14 199.86,-55.18 189.45,-53.21 190.5,-60.14"/>
</g>
<!-- Node6&#45;&gt;Node3 -->
<g id="edge6" class="edge">
<title>Node6&#45;&gt;Node3</title>
<path fill="none" stroke="midnightblue" d="M72.63,-76.09C61.51,-78.24 50.25,-80.43 41.13,-82.19"/>
<polygon fill="midnightblue" stroke="midnightblue" points="73.58,-79.47 82.73,-74.13 72.25,-72.6 73.58,-79.47"/>
</g>
</g>
</svg>
