<?xml version="1.0" encoding="UTF-8" standalone="no"?>
<!DOCTYPE svg PUBLIC "-//W3C//DTD SVG 1.1//EN"
 "http://www.w3.org/Graphics/SVG/1.1/DTD/svg11.dtd">
<!-- Generated by graphviz version 2.43.0 (0)
 -->
<!-- Title: ktos_hal_InitTaskStack Pages: 1 -->
<svg width="462pt" height="66pt"
 viewBox="0.00 0.00 462.00 66.00" xmlns="http://www.w3.org/2000/svg" xmlns:xlink="http://www.w3.org/1999/xlink">
<g id="graph0" class="graph" transform="scale(1 1) rotate(0) translate(4 62)">
<title>ktos_hal_InitTaskStack</title>
<polygon fill="white" stroke="transparent" points="-4,4 -4,-62 458,-62 458,4 -4,4"/>
<!-- Node1 -->
<g id="node1" class="node">
<title>Node1</title>
<g id="a_node1"><a xlink:title="Set up the initial stack frame for a new task.">
<polygon fill="#bfbfbf" stroke="black" points="326,-19.5 326,-38.5 454,-38.5 454,-19.5 326,-19.5"/>
<text text-anchor="middle" x="390" y="-26.5" font-family="Helvetica,sans-Serif" font-size="10.00">ktos_hal_InitTaskStack</text>
</a>
</g>
</g>
<!-- Node2 -->
<g id="node2" class="node">
<title>Node2</title>
<g id="a_node2"><a xlink:href="ktos_8c.html#a9f7bbd66bfb5333402db8b6c413cb114" target="_top" xlink:title=" ">
<polygon fill="white" stroke="black" points="77,-38.5 77,-57.5 157,-57.5 157,-38.5 77,-38.5"/>
<text text-anchor="middle" x="117" y="-45.5" font-family="Helvetica,sans-Serif" font-size="10.00">ktos_InitTask</text>
</a>
</g>
</g>
<!-- Node1&#45;&gt;Node2 -->
<g id="edge1" class="edge">
<title>Node1&#45;&gt;Node2</title>
<path fill="none" stroke="midnightblue" d="M315.81,-34.13C264.8,-37.71 198.73,-42.34 157.34,-45.24"/>
<polygon fill="midnightblue" stroke="midnightblue" points="316.07,-37.62 325.8,-33.43 315.58,-30.64 316.07,-37.62"/>
</g>
<!-- Node4 -->
<g id="node4" class="node">
<title>Node4</title>
<g id="a_node4"><a xlink:href="ktos_8c.html#ae0e8182ad311d004e6d96f8d42a70501" target="_top" xlink:title="Round&#45;robin cooperative scheduler — runs on the OS stack.">
<polygon fill="white" stroke="black" points="193,-0.5 193,-19.5 290,-19.5 290,-0.5 193,-0.5"/>
<text text-anchor="middle" x="241.5" y="-7.5" font-family="Helvetica,sans-Serif" font-size="10.00">ktos_SwitchTask</text>
</a>
</g>
</g>
<!-- Node1&#45;&gt;Node4 -->
<g id="edge3" class="edge">
<title>Node1&#45;&gt;Node4</title>
<path fill="none" stroke="midnightblue" d="M315.49,-19.47C306.86,-18.35 298.24,-17.23 290.1,-16.17"/>
<polygon fill="midnightblue" stroke="midnightblue" points="315.23,-22.96 325.6,-20.78 316.13,-16.02 315.23,-22.96"/>
</g>
<!-- Node3 -->
<g id="node3" class="node">
<title>Node3</title>
<g id="a_node3"><a xlink:href="ktos__multi_8c.html#ae66f6b31b5ad750f1fe042a706a4e3d4" target="_top" xlink:title=" ">
<polygon fill="white" stroke="black" points="0,-19.5 0,-38.5 41,-38.5 41,-19.5 0,-19.5"/>
<text text-anchor="middle" x="20.5" y="-26.5" font-family="Helvetica,sans-Serif" font-size="10.00">main</text>
</a>
</g>
</g>
<!-- Node2&#45;&gt;Node3 -->
<g id="edge2" class="edge">
<title>Node2&#45;&gt;Node3</title>
<path fill="none" stroke="midnightblue" d="M66.87,-38.12C57.75,-36.29 48.72,-34.47 41.15,-32.95"/>
<polygon fill="midnightblue" stroke="midnightblue" points="66.25,-41.57 76.74,-40.11 67.63,-34.7 66.25,-41.57"/>
</g>
<!-- Node5 -->
<g id="node5" class="node">
<title>Node5</title>
<g id="a_node5"><a xlink:href="group__ktos__core.html#ga6580b57b65ece0e7bfcc48823db105f3" target="_top" xlink:title="Start the KTOS scheduler. Never returns.">
<polygon fill="white" stroke="black" points="79.5,-0.5 79.5,-19.5 154.5,-19.5 154.5,-0.5 79.5,-0.5"/>
<text text-anchor="middle" x="117" y="-7.5" font-family="Helvetica,sans-Serif" font-size="10.00">ktos_RunOS</text>
</a>
</g>
</g>
<!-- Node4&#45;&gt;Node5 -->
<g id="edge4" class="edge">
<title>Node4&#45;&gt;Node5</title>
<path fill="none" stroke="midnightblue" d="M182.6,-10C173.12,-10 163.55,-10 154.77,-10"/>
<polygon fill="midnightblue" stroke="midnightblue" points="182.79,-13.5 192.79,-10 182.79,-6.5 182.79,-13.5"/>
</g>
<!-- Node5&#45;&gt;Node3 -->
<g id="edge5" class="edge">
<title>Node5&#45;&gt;Node3</title>
<path fill="none" stroke="midnightblue" d="M69.5,-19.35C59.45,-21.37 49.36,-23.4 41.04,-25.07"/>
<polygon fill="midnightblue" stroke="midnightblue" points="70.35,-22.75 79.46,-17.35 68.97,-15.89 70.35,-22.75"/>
</g>
</g>
</svg>
