<?xml version="1.0" encoding="UTF-8" standalone="no"?>
<!DOCTYPE svg PUBLIC "-//W3C//DTD SVG 1.1//EN"
 "http://www.w3.org/Graphics/SVG/1.1/DTD/svg11.dtd">
<!-- Generated by graphviz version 2.43.0 (0)
 -->
<!-- Title: ktos_RunOS Pages: 1 -->
<svg width="627pt" height="214pt"
 viewBox="0.00 0.00 627.00 214.00" xmlns="http://www.w3.org/2000/svg" xmlns:xlink="http://www.w3.org/1999/xlink">
<g id="graph0" class="graph" transform="scale(1 1) rotate(0) translate(4 210)">
<title>ktos_RunOS</title>
<!-- Node1 -->
<g id="Node000001" class="node">
<title>Node1</title>
<g id="a_Node000001"><a xlink:title="Start the KTOS scheduler. Never returns.">
<polygon fill="#999999" stroke="#666666" points="75,-130 0,-130 0,-111 75,-111 75,-130"/>
<text text-anchor="middle" x="37.5" y="-118" font-family="Helvetica,sans-Serif" font-size="10.00">ktos_RunOS</text>
</a>
</g>
</g>
<!-- Node2 -->
<g id="Node000002" class="node">
<title>Node2</title>
<g id="a_Node000002"><a xlink:href="group__ktos__core.html#ga7aca2702c8fa0e02fd05461d4f5d23fe" target="_top" xlink:title="Emit a fatal&#45;error message and halt execution.">
<polygon fill="white" stroke="#666666" points="601,-206 503,-206 503,-187 601,-187 601,-206"/>
<text text-anchor="middle" x="552" y="-194" font-family="Helvetica,sans-Serif" font-size="10.00">ktos_Emergency</text>
</a>
</g>
</g>
<!-- Node1&#45;&gt;Node2 -->
<g id="edge1_Node000001_Node000002" class="edge">
<title>Node1&#45;&gt;Node2</title>
<g id="a_edge1_Node000001_Node000002"><a xlink:title=" ">
<path fill="none" stroke="#63b8ff" d="M52.8,-130.06C66.94,-139 89.53,-151.94 111,-158.5 243.11,-198.89 407.21,-201.25 492.83,-199.1"/>
<polygon fill="#63b8ff" stroke="#63b8ff" points="492.98,-202.6 502.88,-198.82 492.79,-195.6 492.98,-202.6"/>
</a>
</g>
</g>
<!-- Node3 -->
<g id="Node000003" class="node">
<title>Node3</title>
<g id="a_Node000003"><a xlink:href="group__ktos__hal.html#gae42df35bd10d7d6b296be9687d436a32" target="_top" xlink:title="Configure and start the 1 ms system tick timer.">
<polygon fill="white" stroke="#666666" points="255,-149 111,-149 111,-130 255,-130 255,-149"/>
<text text-anchor="middle" x="183" y="-137" font-family="Helvetica,sans-Serif" font-size="10.00">ktos_hal_InitSystemTimer</text>
</a>
</g>
</g>
<!-- Node1&#45;&gt;Node3 -->
<g id="edge2_Node000001_Node000003" class="edge">
<title>Node1&#45;&gt;Node3</title>
<g id="a_edge2_Node000001_Node000003"><a xlink:title=" ">
<path fill="none" stroke="#63b8ff" d="M75.08,-125.34C83.05,-126.4 91.78,-127.55 100.71,-128.74"/>
<polygon fill="#63b8ff" stroke="#63b8ff" points="100.48,-132.24 110.85,-130.08 101.4,-125.3 100.48,-132.24"/>
</a>
</g>
</g>
<!-- Node4 -->
<g id="Node000004" class="node">
<title>Node4</title>
<g id="a_Node000004"><a xlink:href="ktos_8c.html#ae0e8182ad311d004e6d96f8d42a70501" target="_top" xlink:title="Round&#45;robin cooperative scheduler — runs on the OS stack.">
<polygon fill="white" stroke="#666666" points="231.5,-112 134.5,-112 134.5,-93 231.5,-93 231.5,-112"/>
<text text-anchor="middle" x="183" y="-100" font-family="Helvetica,sans-Serif" font-size="10.00">ktos_SwitchTask</text>
</a>
</g>
</g>
<!-- Node1&#45;&gt;Node4 -->
<g id="edge3_Node000001_Node000004" class="edge">
<title>Node1&#45;&gt;Node4</title>
<g id="a_edge3_Node000001_Node000004"><a xlink:title=" ">
<path fill="none" stroke="#63b8ff" d="M75.08,-115.91C90,-114.04 107.62,-111.83 124.21,-109.75"/>
<polygon fill="#63b8ff" stroke="#63b8ff" points="124.88,-113.19 134.37,-108.48 124.01,-106.25 124.88,-113.19"/>
</a>
</g>
</g>
<!-- Node12 -->
<g id="Node000012" class="node">
<title>Node12</title>
<g id="a_Node000012"><a xlink:href="ktos_8c.html#a2a3876653c789ddcd5a9ccf968d98fe0" target="_top" xlink:title="1 ms system tick interrupt handler.">
<polygon fill="white" stroke="#666666" points="247.5,-75 118.5,-75 118.5,-56 247.5,-56 247.5,-75"/>
<text text-anchor="middle" x="183" y="-63" font-family="Helvetica,sans-Serif" font-size="10.00">ktos_timer_irq_handler</text>
</a>
</g>
</g>
<!-- Node1&#45;&gt;Node12 -->
<g id="edge13_Node000001_Node000012" class="edge">
<title>Node1&#45;&gt;Node12</title>
<g id="a_edge13_Node000001_Node000012"><a xlink:title=" ">
<path fill="none" stroke="#63b8ff" d="M55.35,-110.93C69.78,-103.03 91.28,-91.95 111,-84.5 117.34,-82.11 124.1,-79.89 130.83,-77.88"/>
<polygon fill="#63b8ff" stroke="#63b8ff" points="131.98,-81.19 140.63,-75.08 130.06,-74.46 131.98,-81.19"/>
</a>
</g>
</g>
<!-- Node5 -->
<g id="Node000005" class="node">
<title>Node5</title>
<g id="a_Node000005"><a xlink:href="ktos_8c.html#a0472bc90096e9ce7acb6b8aebc9b127b" target="_top" xlink:title="Default exit handler called when a task function returns.">
<polygon fill="white" stroke="#666666" points="449,-169 291,-169 291,-150 449,-150 449,-169"/>
<text text-anchor="middle" x="370" y="-157" font-family="Helvetica,sans-Serif" font-size="10.00">ktos_DefaultTaskExitHandler</text>
</a>
</g>
</g>
<!-- Node4&#45;&gt;Node5 -->
<g id="edge4_Node000004_Node000005" class="edge">
<title>Node4&#45;&gt;Node5</title>
<g id="a_edge4_Node000004_Node000005"><a xlink:title=" ">
<path fill="none" stroke="#63b8ff" d="M222.92,-112.09C233.4,-114.9 244.69,-118.13 255,-121.5 271.32,-126.84 274.79,-129.86 291,-135.5 302.39,-139.46 314.82,-143.44 326.34,-146.99"/>
<polygon fill="#63b8ff" stroke="#63b8ff" points="325.61,-150.42 336.19,-149.98 327.64,-143.72 325.61,-150.42"/>
</a>
</g>
</g>
<!-- Node7 -->
<g id="Node000007" class="node">
<title>Node7</title>
<g id="a_Node000007"><a xlink:href="stm32f407_2ktos__bsp_8c.html#aeaa63a9b962a6dbb7ea6b11030f8ca75" target="_top" xlink:title=" ">
<polygon fill="white" stroke="#666666" points="619,-131 485,-131 485,-112 619,-112 619,-131"/>
<text text-anchor="middle" x="552" y="-119" font-family="Helvetica,sans-Serif" font-size="10.00">ktos_hal_ContextSwitch</text>
</a>
</g>
</g>
<!-- Node4&#45;&gt;Node7 -->
<g id="edge8_Node000004_Node000007" class="edge">
<title>Node4&#45;&gt;Node7</title>
<g id="a_edge8_Node000004_Node000007"><a xlink:title=" ">
<path fill="none" stroke="#63b8ff" d="M231.6,-104.96C293.29,-108.16 401.58,-113.76 474.78,-117.55"/>
<polygon fill="#63b8ff" stroke="#63b8ff" points="474.69,-121.05 484.86,-118.08 475.06,-114.06 474.69,-121.05"/>
</a>
</g>
</g>
<!-- Node8 -->
<g id="Node000008" class="node">
<title>Node8</title>
<g id="a_Node000008"><a xlink:href="group__ktos__hal.html#ga13869e4884f47a98d8c9b2d9902d5eda" target="_top" xlink:title="Disable all maskable interrupts.">
<polygon fill="white" stroke="#666666" points="443.5,-93 296.5,-93 296.5,-74 443.5,-74 443.5,-93"/>
<text text-anchor="middle" x="370" y="-81" font-family="Helvetica,sans-Serif" font-size="10.00">ktos_hal_DisableInterrupts</text>
</a>
</g>
</g>
<!-- Node4&#45;&gt;Node8 -->
<g id="edge9_Node000004_Node000008" class="edge">
<title>Node4&#45;&gt;Node8</title>
<g id="a_edge9_Node000004_Node000008"><a xlink:title=" ">
<path fill="none" stroke="#63b8ff" d="M231.64,-97.61C248.34,-95.89 267.61,-93.91 286.34,-91.99"/>
<polygon fill="#63b8ff" stroke="#63b8ff" points="286.77,-95.46 296.36,-90.96 286.06,-88.5 286.77,-95.46"/>
</a>
</g>
</g>
<!-- Node9 -->
<g id="Node000009" class="node">
<title>Node9</title>
<g id="a_Node000009"><a xlink:href="group__ktos__hal.html#ga6741995a98c2dc4867a11717fa64efd8" target="_top" xlink:title="Re&#45;enable maskable interrupts.">
<polygon fill="white" stroke="#666666" points="441.5,-56 298.5,-56 298.5,-37 441.5,-37 441.5,-56"/>
<text text-anchor="middle" x="370" y="-44" font-family="Helvetica,sans-Serif" font-size="10.00">ktos_hal_EnableInterrupts</text>
</a>
</g>
</g>
<!-- Node4&#45;&gt;Node9 -->
<g id="edge10_Node000004_Node000009" class="edge">
<title>Node4&#45;&gt;Node9</title>
<g id="a_edge10_Node000004_Node000009"><a xlink:title=" ">
<path fill="none" stroke="#63b8ff" d="M228.44,-92.96C237.36,-90.57 246.57,-87.74 255,-84.5 271.89,-78.01 274.08,-71.91 291,-65.5 297.72,-62.95 304.9,-60.66 312.08,-58.63"/>
<polygon fill="#63b8ff" stroke="#63b8ff" points="313.07,-61.98 321.82,-56.01 311.25,-55.22 313.07,-61.98"/>
</a>
</g>
</g>
<!-- Node10 -->
<g id="Node000010" class="node">
<title>Node10</title>
<g id="a_Node000010"><a xlink:href="group__ktos__hal.html#ga73dd6050479b4a96fb2f604c7fbc3e3a" target="_top" xlink:title="Set up the initial stack frame for a new task.">
<polygon fill="white" stroke="#666666" points="434,-19 306,-19 306,0 434,0 434,-19"/>
<text text-anchor="middle" x="370" y="-7" font-family="Helvetica,sans-Serif" font-size="10.00">ktos_hal_InitTaskStack</text>
</a>
</g>
</g>
<!-- Node4&#45;&gt;Node10 -->
<g id="edge11_Node000004_Node000010" class="edge">
<title>Node4&#45;&gt;Node10</title>
<g id="a_edge11_Node000004_Node000010"><a xlink:title=" ">
<path fill="none" stroke="#63b8ff" d="M231.68,-95.74C239.96,-93.12 248.11,-89.5 255,-84.5 279.25,-66.9 266.56,-44.84 291,-27.5 293.08,-26.02 295.27,-24.66 297.53,-23.42"/>
<polygon fill="#63b8ff" stroke="#63b8ff" points="299.05,-26.57 306.59,-19.12 296.05,-20.24 299.05,-26.57"/>
</a>
</g>
</g>
<!-- Node5&#45;&gt;Node2 -->
<g id="edge6_Node000005_Node000002" class="edge">
<title>Node5&#45;&gt;Node2</title>
<g id="a_edge6_Node000005_Node000002"><a xlink:title=" ">
<path fill="none" stroke="#63b8ff" d="M417.35,-169.03C440.88,-173.86 469.66,-179.78 494.48,-184.88"/>
<polygon fill="#63b8ff" stroke="#63b8ff" points="493.99,-188.35 504.49,-186.94 495.4,-181.5 493.99,-188.35"/>
</a>
</g>
</g>
<!-- Node6 -->
<g id="Node000006" class="node">
<title>Node6</title>
<g id="a_Node000006"><a xlink:href="group__ktos__core.html#ga77b699103f3ec266c0d79d849ead8c1c" target="_top" xlink:title="Printf&#45;style debug logging (active only when DEBUG == 1).">
<polygon fill="white" stroke="#666666" points="602.5,-169 501.5,-169 501.5,-150 602.5,-150 602.5,-169"/>
<text text-anchor="middle" x="552" y="-157" font-family="Helvetica,sans-Serif" font-size="10.00">ktos_DebugPrintf</text>
</a>
</g>
</g>
<!-- Node5&#45;&gt;Node6 -->
<g id="edge5_Node000005_Node000006" class="edge">
<title>Node5&#45;&gt;Node6</title>
<g id="a_edge5_Node000005_Node000006"><a xlink:title=" ">
<path fill="none" stroke="#63b8ff" d="M449.17,-159.5C463.3,-159.5 477.84,-159.5 491.34,-159.5"/>
<polygon fill="#63b8ff" stroke="#63b8ff" points="491.44,-163 501.44,-159.5 491.44,-156 491.44,-163"/>
</a>
</g>
</g>
<!-- Node5&#45;&gt;Node7 -->
<g id="edge7_Node000005_Node000007" class="edge">
<title>Node5&#45;&gt;Node7</title>
<g id="a_edge7_Node000005_Node000007"><a xlink:title=" ">
<path fill="none" stroke="#63b8ff" d="M416.42,-149.91C440.6,-144.81 470.53,-138.49 496.01,-133.11"/>
<polygon fill="#63b8ff" stroke="#63b8ff" points="496.84,-136.51 505.91,-131.02 495.4,-129.66 496.84,-136.51"/>
</a>
</g>
</g>
<!-- Node11 -->
<g id="Node000011" class="node">
<title>Node11</title>
<g id="a_Node000011"><a xlink:href="esp8266_2ktos__bsp_8c.html#ad0087b08af4998a5440320140fb300a6" target="_top" xlink:title=" ">
<polygon fill="white" stroke="#666666" points="602.5,-19 501.5,-19 501.5,0 602.5,0 602.5,-19"/>
<text text-anchor="middle" x="552" y="-7" font-family="Helvetica,sans-Serif" font-size="10.00">ktos_task_launch</text>
</a>
</g>
</g>
<!-- Node10&#45;&gt;Node11 -->
<g id="edge12_Node000010_Node000011" class="edge">
<title>Node10&#45;&gt;Node11</title>
<g id="a_edge12_Node000010_Node000011"><a xlink:title=" ">
<path fill="none" stroke="#63b8ff" d="M434.21,-9.5C452.67,-9.5 472.79,-9.5 491.04,-9.5"/>
<polygon fill="#63b8ff" stroke="#63b8ff" points="491.26,-13 501.26,-9.5 491.26,-6 491.26,-13"/>
</a>
</g>
</g>
</g>
</svg>
