<?xml version="1.0" encoding="UTF-8" standalone="no"?>
<!DOCTYPE svg PUBLIC "-//W3C//DTD SVG 1.1//EN"
 "http://www.w3.org/Graphics/SVG/1.1/DTD/svg11.dtd">
<!-- Generated by graphviz version 2.43.0 (0)
 -->
<!-- Title: core/ktos_multi.c Pages: 1 -->
<svg width="331pt" height="192pt"
 viewBox="0.00 0.00 330.50 192.00" xmlns="http://www.w3.org/2000/svg" xmlns:xlink="http://www.w3.org/1999/xlink">

<svg id="main" version="1.1" xmlns="http://www.w3.org/2000/svg" xmlns:xlink="http://www.w3.org/1999/xlink" xml:space="preserve" onload="init(evt)">
<style type="text/css"><![CDATA[
.node, .edge {opacity: 0.7;}
.node.selected, .edge.selected {opacity: 1;}
.edge:hover path { stroke: red; }
.edge:hover polygon { stroke: red; fill: red; }
]]></style>
<script type="application/ecmascript" xlink:href="svg.min.js"/>
<svg id="graph" class="graph">
<g id="graph0" class="graph" transform="scale(1 1) rotate(0) translate(4 188)">
<title>core/ktos_multi.c</title>
<!-- Node1 -->
<g id="Node000001" class="node">
<title>Node1</title>
<g id="a_Node000001"><a xlink:title=" ">
<polygon fill="#999999" stroke="#666666" points="242,-184 141,-184 141,-165 242,-165 242,-184"/>
<text text-anchor="middle" x="191.5" y="-172" font-family="Helvetica,sans-Serif" font-size="10.00">core/ktos_multi.c</text>
</a>
</g>
</g>
<!-- Node2 -->
<g id="Node000002" class="node">
<title>Node2</title>
<g id="a_Node000002"><a xlink:href="ktos__multi_8h.html" target="_top" xlink:title="Portable primitive types, constants, and utility prototypes used throughout the KTOS kernel and all B...">
<polygon fill="white" stroke="#666666" points="143,-74 66,-74 66,-55 143,-55 143,-74"/>
<text text-anchor="middle" x="104.5" y="-62" font-family="Helvetica,sans-Serif" font-size="10.00">ktos_multi.h</text>
</a>
</g>
</g>
<!-- Node1&#45;&gt;Node2 -->
<g id="edge1_Node000001_Node000002" class="edge">
<title>Node1&#45;&gt;Node2</title>
<g id="a_edge1_Node000001_Node000002"><a xlink:title=" ">
<path fill="none" stroke="#63b8ff" d="M171.81,-164.94C156.82,-157.48 136.75,-145.29 124.5,-129 114.62,-115.87 109.55,-97.73 106.99,-84.2"/>
<polygon fill="#63b8ff" stroke="#63b8ff" points="110.41,-83.46 105.38,-74.14 103.5,-84.56 110.41,-83.46"/>
</a>
</g>
</g>
<!-- Node6 -->
<g id="Node000006" class="node">
<title>Node6</title>
<g id="a_Node000006"><a xlink:href="ktos_8h.html" target="_top" xlink:title="KTOS public API — include this in your application code.">
<polygon fill="white" stroke="#666666" points="180,-129 133,-129 133,-110 180,-110 180,-129"/>
<text text-anchor="middle" x="156.5" y="-117" font-family="Helvetica,sans-Serif" font-size="10.00">ktos.h</text>
</a>
</g>
</g>
<!-- Node1&#45;&gt;Node6 -->
<g id="edge5_Node000001_Node000006" class="edge">
<title>Node1&#45;&gt;Node6</title>
<g id="a_edge5_Node000001_Node000006"><a xlink:title=" ">
<path fill="none" stroke="#63b8ff" d="M185.72,-164.75C180.88,-157.42 173.82,-146.73 167.86,-137.7"/>
<polygon fill="#63b8ff" stroke="#63b8ff" points="170.6,-135.5 162.17,-129.09 164.76,-139.36 170.6,-135.5"/>
</a>
</g>
</g>
<!-- Node7 -->
<g id="Node000007" class="node">
<title>Node7</title>
<g id="a_Node000007"><a xlink:title=" ">
<polygon fill="#e0e0e0" stroke="#999999" points="254.5,-129 198.5,-129 198.5,-110 254.5,-110 254.5,-129"/>
<text text-anchor="middle" x="226.5" y="-117" font-family="Helvetica,sans-Serif" font-size="10.00">stdarg.h</text>
</a>
</g>
</g>
<!-- Node1&#45;&gt;Node7 -->
<g id="edge8_Node000001_Node000007" class="edge">
<title>Node1&#45;&gt;Node7</title>
<g id="a_edge8_Node000001_Node000007"><a xlink:title=" ">
<path fill="none" stroke="#63b8ff" d="M197.28,-164.75C202.12,-157.42 209.18,-146.73 215.14,-137.7"/>
<polygon fill="#63b8ff" stroke="#63b8ff" points="218.24,-139.36 220.83,-129.09 212.4,-135.5 218.24,-139.36"/>
</a>
</g>
</g>
<!-- Node8 -->
<g id="Node000008" class="node">
<title>Node8</title>
<g id="a_Node000008"><a xlink:title=" ">
<polygon fill="#e0e0e0" stroke="#999999" points="322.5,-129 272.5,-129 272.5,-110 322.5,-110 322.5,-129"/>
<text text-anchor="middle" x="297.5" y="-117" font-family="Helvetica,sans-Serif" font-size="10.00">stdio.h</text>
</a>
</g>
</g>
<!-- Node1&#45;&gt;Node8 -->
<g id="edge9_Node000001_Node000008" class="edge">
<title>Node1&#45;&gt;Node8</title>
<g id="a_edge9_Node000001_Node000008"><a xlink:title=" ">
<path fill="none" stroke="#63b8ff" d="M208.53,-164.98C225.43,-156.54 251.56,-143.47 271.14,-133.68"/>
<polygon fill="#63b8ff" stroke="#63b8ff" points="272.78,-136.77 280.16,-129.17 269.65,-130.51 272.78,-136.77"/>
</a>
</g>
</g>
<!-- Node3 -->
<g id="Node000003" class="node">
<title>Node3</title>
<g id="a_Node000003"><a xlink:title=" ">
<polygon fill="#e0e0e0" stroke="#999999" points="53,-19 0,-19 0,0 53,0 53,-19"/>
<text text-anchor="middle" x="26.5" y="-7" font-family="Helvetica,sans-Serif" font-size="10.00">stdint.h</text>
</a>
</g>
</g>
<!-- Node2&#45;&gt;Node3 -->
<g id="edge2_Node000002_Node000003" class="edge">
<title>Node2&#45;&gt;Node3</title>
<g id="a_edge2_Node000002_Node000003"><a xlink:title=" ">
<path fill="none" stroke="#63b8ff" d="M91.97,-54.98C80.1,-46.92 62.04,-34.65 47.89,-25.03"/>
<polygon fill="#63b8ff" stroke="#63b8ff" points="49.5,-21.9 39.26,-19.17 45.56,-27.69 49.5,-21.9"/>
</a>
</g>
</g>
<!-- Node4 -->
<g id="Node000004" class="node">
<title>Node4</title>
<g id="a_Node000004"><a xlink:title=" ">
<polygon fill="#e0e0e0" stroke="#999999" points="127.5,-19 71.5,-19 71.5,0 127.5,0 127.5,-19"/>
<text text-anchor="middle" x="99.5" y="-7" font-family="Helvetica,sans-Serif" font-size="10.00">stddef.h</text>
</a>
</g>
</g>
<!-- Node2&#45;&gt;Node4 -->
<g id="edge3_Node000002_Node000004" class="edge">
<title>Node2&#45;&gt;Node4</title>
<g id="a_edge3_Node000002_Node000004"><a xlink:title=" ">
<path fill="none" stroke="#63b8ff" d="M103.67,-54.75C103.02,-47.8 102.08,-37.85 101.26,-29.13"/>
<polygon fill="#63b8ff" stroke="#63b8ff" points="104.73,-28.72 100.31,-19.09 97.77,-29.37 104.73,-28.72"/>
</a>
</g>
</g>
<!-- Node5 -->
<g id="Node000005" class="node">
<title>Node5</title>
<g id="a_Node000005"><a xlink:title=" ">
<polygon fill="#e0e0e0" stroke="#999999" points="207.5,-19 145.5,-19 145.5,0 207.5,0 207.5,-19"/>
<text text-anchor="middle" x="176.5" y="-7" font-family="Helvetica,sans-Serif" font-size="10.00">stdbool.h</text>
</a>
</g>
</g>
<!-- Node2&#45;&gt;Node5 -->
<g id="edge4_Node000002_Node000005" class="edge">
<title>Node2&#45;&gt;Node5</title>
<g id="a_edge4_Node000002_Node000005"><a xlink:title=" ">
<path fill="none" stroke="#63b8ff" d="M116.07,-54.98C126.92,-47 143.38,-34.88 156.38,-25.31"/>
<polygon fill="#63b8ff" stroke="#63b8ff" points="158.74,-27.92 164.72,-19.17 154.59,-22.28 158.74,-27.92"/>
</a>
</g>
</g>
<!-- Node6&#45;&gt;Node2 -->
<g id="edge7_Node000006_Node000002" class="edge">
<title>Node6&#45;&gt;Node2</title>
<g id="a_edge7_Node000006_Node000002"><a xlink:title=" ">
<path fill="none" stroke="#63b8ff" d="M147.91,-109.75C140.34,-102.03 129.12,-90.6 119.99,-81.28"/>
<polygon fill="#63b8ff" stroke="#63b8ff" points="122.43,-78.78 112.93,-74.09 117.43,-83.68 122.43,-78.78"/>
</a>
</g>
</g>
<!-- Node6&#45;&gt;Node5 -->
<g id="edge6_Node000006_Node000005" class="edge">
<title>Node6&#45;&gt;Node5</title>
<g id="a_edge6_Node000006_Node000005"><a xlink:title=" ">
<path fill="none" stroke="#63b8ff" d="M158.14,-109.66C161.38,-92.17 168.67,-52.8 173.02,-29.27"/>
<polygon fill="#63b8ff" stroke="#63b8ff" points="176.52,-29.63 174.9,-19.16 169.63,-28.35 176.52,-29.63"/>
</a>
</g>
</g>
</g>
</svg>
</svg>

<style type='text/css'>
<![CDATA[
[data-mouse-over-selected='false'] { opacity: 0.7; }
[data-mouse-over-selected='true']  { opacity: 1.0; }
]]>
</style>
<script type="application/ecmascript"><![CDATA[
document.addEventListener('DOMContentLoaded', (event) => {
  highlightEdges();
  highlightAdjacentNodes();
});
]]></script>
</svg>
