<?xml version="1.0" encoding="UTF-8" standalone="no"?>
<!DOCTYPE svg PUBLIC "-//W3C//DTD SVG 1.1//EN"
 "http://www.w3.org/Graphics/SVG/1.1/DTD/svg11.dtd">
<!-- Generated by graphviz version 2.43.0 (0)
 -->
<!-- Title: core/ktos_multi.h Pages: 1 -->
<!--zoomable 203 -->

<svg id="main" version="1.1" xmlns="http://www.w3.org/2000/svg" xmlns:xlink="http://www.w3.org/1999/xlink" xml:space="preserve" onload="init(evt)">
<style type="text/css"><![CDATA[
.node, .edge {opacity: 0.7;}
.node.selected, .edge.selected {opacity: 1;}
.edge:hover path { stroke: red; }
.edge:hover polygon { stroke: red; fill: red; }
]]></style>

<defs>
  <circle id="rim" cx="0" cy="0" r="7"/>
  <circle id="rim2" cx="0" cy="0" r="3.5"/>
  <g id="zoomPlus">
    <use xlink:href="#rim" fill="#404040"><set attributeName="fill" to="#808080" begin="zoomplus.mouseover" end="zoomplus.mouseout"/></use>
    <path d="M-4,0h8M0,-4v8" fill="none" stroke="white" stroke-width="1.5" pointer-events="none"/>
  </g>
  <g id="zoomMin">
    <use xlink:href="#rim" fill="#404040"><set attributeName="fill" to="#808080" begin="zoomminus.mouseover" end="zoomminus.mouseout"/></use>
    <path d="M-4,0h8" fill="none" stroke="white" stroke-width="1.5" pointer-events="none"/>
  </g>
  <g id="arrowUp" transform="translate(30 24)">
    <use xlink:href="#rim"/>
    <path pointer-events="none" fill="none" stroke="white" stroke-width="1.5" d="M0,-3.0v7 M-2.5,-0.5L0,-3.0L2.5,-0.5"/>
  </g>
  <g id="arrowRight" transform="rotate(90) translate(36 -43)">
    <use xlink:href="#rim"/>
    <path pointer-events="none" fill="none" stroke="white" stroke-width="1.5" d="M0,-3.0v7 M-2.5,-0.5L0,-3.0L2.5,-0.5"/>
  </g>
  <g id="arrowDown" transform="rotate(180) translate(-30 -48)">
    <use xlink:href="#rim"/>
    <path pointer-events="none" fill="none" stroke="white" stroke-width="1.5" d="M0,-3.0v7 M-2.5,-0.5L0,-3.0L2.5,-0.5"/>
  </g>
  <g id="arrowLeft" transform="rotate(270) translate(-36 17)">
    <use xlink:href="#rim"/>
    <path pointer-events="none" fill="none" stroke="white" stroke-width="1.5" d="M0,-3.0v7 M-2.5,-0.5L0,-3.0L2.5,-0.5"/>
  </g>
  <g id="resetDef">
    <use xlink:href="#rim2" fill="#404040"><set attributeName="fill" to="#808080" begin="reset.mouseover" end="reset.mouseout"/></use>
  </g>
</defs>
<script type="application/ecmascript">
var viewWidth = 1637;
var viewHeight = 203;
var sectionId = 'dynsection-1';
</script>
<script type="application/ecmascript" xlink:href="svg.min.js"/>
<svg id="graph" class="graph">
<g id="viewport">
<title>core/ktos_multi.h</title>
<!-- Node1 -->
<g id="Node000001" class="node">
<title>Node1</title>
<g id="a_Node000001"><a xlink:title="Portable primitive types, constants, and utility prototypes used throughout the KTOS kernel and all B...">
<polygon fill="#999999" stroke="#666666" points="699.5,-195 598.5,-195 598.5,-176 699.5,-176 699.5,-195"/>
<text text-anchor="middle" x="649" y="-183" font-family="Helvetica,sans-Serif" font-size="10.00">core/ktos_multi.h</text>
</a>
</g>
</g>
<!-- Node2 -->
<g id="Node000002" class="node">
<title>Node2</title>
<g id="a_Node000002"><a xlink:href="ktos_8c.html" target="_top" xlink:title="KTOS cooperative scheduler implementation.">
<polygon fill="white" stroke="#666666" points="70,-24.5 0,-24.5 0,-5.5 70,-5.5 70,-24.5"/>
<text text-anchor="middle" x="35" y="-12.5" font-family="Helvetica,sans-Serif" font-size="10.00">core/ktos.c</text>
</a>
</g>
</g>
<!-- Node1&#45;&gt;Node2 -->
<g id="edge1_Node000001_Node000002" class="edge">
<title>Node1&#45;&gt;Node2</title>
<g id="a_edge1_Node000001_Node000002"><a xlink:title=" ">
<path fill="none" stroke="#63b8ff" d="M600.65,-173.78C524.69,-156.67 372.97,-121.38 246,-85 177.64,-65.41 98.22,-38.22 59.19,-24.56"/>
<polygon fill="#63b8ff" stroke="#63b8ff" points="599.88,-177.2 610.41,-175.97 601.42,-170.37 599.88,-177.2"/>
</a>
</g>
</g>
<!-- Node3 -->
<g id="Node000003" class="node">
<title>Node3</title>
<g id="a_Node000003"><a xlink:href="ktos_8h.html" target="_top" xlink:title="KTOS public API — include this in your application code.">
<polygon fill="white" stroke="#666666" points="684.5,-140 613.5,-140 613.5,-121 684.5,-121 684.5,-140"/>
<text text-anchor="middle" x="649" y="-128" font-family="Helvetica,sans-Serif" font-size="10.00">core/ktos.h</text>
</a>
</g>
</g>
<!-- Node1&#45;&gt;Node3 -->
<g id="edge2_Node000001_Node000003" class="edge">
<title>Node1&#45;&gt;Node3</title>
<g id="a_edge2_Node000001_Node000003"><a xlink:title=" ">
<path fill="none" stroke="#63b8ff" d="M649,-165.66C649,-156.93 649,-146.99 649,-140.09"/>
<polygon fill="#63b8ff" stroke="#63b8ff" points="645.5,-165.75 649,-175.75 652.5,-165.75 645.5,-165.75"/>
</a>
</g>
</g>
<!-- Node16 -->
<g id="Node000016" class="node">
<title>Node16</title>
<g id="a_Node000016"><a xlink:href="ktos__multi_8c.html" target="_top" xlink:title=" ">
<polygon fill="white" stroke="#666666" points="813.5,-85 712.5,-85 712.5,-66 813.5,-66 813.5,-85"/>
<text text-anchor="middle" x="763" y="-73" font-family="Helvetica,sans-Serif" font-size="10.00">core/ktos_multi.c</text>
</a>
</g>
</g>
<!-- Node1&#45;&gt;Node16 -->
<g id="edge18_Node000001_Node000016" class="edge">
<title>Node1&#45;&gt;Node16</title>
<g id="a_edge18_Node000001_Node000016"><a xlink:title=" ">
<path fill="none" stroke="#63b8ff" d="M665.78,-168.61C690.2,-145.47 734.73,-103.29 753.86,-85.16"/>
<polygon fill="#63b8ff" stroke="#63b8ff" points="663.18,-166.24 658.33,-175.66 668,-171.33 663.18,-166.24"/>
</a>
</g>
</g>
<!-- Node3&#45;&gt;Node2 -->
<g id="edge3_Node000003_Node000002" class="edge">
<title>Node3&#45;&gt;Node2</title>
<g id="a_edge3_Node000003_Node000002"><a xlink:title=" ">
<path fill="none" stroke="#63b8ff" d="M603.22,-123.65C505.87,-110.75 271.51,-77.2 79,-30 72.77,-28.47 66.14,-26.53 59.96,-24.59"/>
<polygon fill="#63b8ff" stroke="#63b8ff" points="602.93,-127.14 613.3,-124.98 603.84,-120.2 602.93,-127.14"/>
</a>
</g>
</g>
<!-- Node4 -->
<g id="Node000004" class="node">
<title>Node4</title>
<g id="a_Node000004"><a xlink:href="ktos__hal_8h.html" target="_top" xlink:title="KTOS Hardware Abstraction Layer (HAL) interface.">
<polygon fill="white" stroke="#666666" points="694.5,-85 603.5,-85 603.5,-66 694.5,-66 694.5,-85"/>
<text text-anchor="middle" x="649" y="-73" font-family="Helvetica,sans-Serif" font-size="10.00">core/ktos_hal.h</text>
</a>
</g>
</g>
<!-- Node3&#45;&gt;Node4 -->
<g id="edge4_Node000003_Node000004" class="edge">
<title>Node3&#45;&gt;Node4</title>
<g id="a_edge4_Node000003_Node000004"><a xlink:title=" ">
<path fill="none" stroke="#63b8ff" d="M649,-110.66C649,-101.93 649,-91.99 649,-85.09"/>
<polygon fill="#63b8ff" stroke="#63b8ff" points="645.5,-110.75 649,-120.75 652.5,-110.75 645.5,-110.75"/>
</a>
</g>
</g>
<!-- Node3&#45;&gt;Node16 -->
<g id="edge17_Node000003_Node000016" class="edge">
<title>Node3&#45;&gt;Node16</title>
<g id="a_edge17_Node000003_Node000016"><a xlink:title=" ">
<path fill="none" stroke="#63b8ff" d="M676.39,-116.77C697.42,-106.99 725.89,-93.75 744.35,-85.17"/>
<polygon fill="#63b8ff" stroke="#63b8ff" points="674.91,-113.6 667.32,-120.98 677.86,-119.94 674.91,-113.6"/>
</a>
</g>
</g>
<!-- Node4&#45;&gt;Node2 -->
<g id="edge16_Node000004_Node000002" class="edge">
<title>Node4&#45;&gt;Node2</title>
<g id="a_edge16_Node000004_Node000002"><a xlink:title=" ">
<path fill="none" stroke="#63b8ff" d="M593.32,-71.79C469.88,-65.51 176.48,-49.05 79,-30 72.23,-28.68 65.05,-26.66 58.49,-24.57"/>
<polygon fill="#63b8ff" stroke="#63b8ff" points="593.16,-75.28 603.32,-72.29 593.51,-68.29 593.16,-75.28"/>
</a>
</g>
</g>
<!-- Node5 -->
<g id="Node000005" class="node">
<title>Node5</title>
<g id="a_Node000005"><a xlink:href="atmega2560_2ktos__bsp_8c.html" target="_top" xlink:title="KTOS Board Support Package — ATmega2560 (AVR 8&#45;bit)">
<polygon fill="white" stroke="#666666" points="210,-30 88,-30 88,0 210,0 210,-30"/>
<text text-anchor="start" x="96" y="-18" font-family="Helvetica,sans-Serif" font-size="10.00">bsp/atmega2560/ktos</text>
<text text-anchor="middle" x="149" y="-7" font-family="Helvetica,sans-Serif" font-size="10.00">_bsp.c</text>
</a>
</g>
</g>
<!-- Node4&#45;&gt;Node5 -->
<g id="edge5_Node000004_Node000005" class="edge">
<title>Node4&#45;&gt;Node5</title>
<g id="a_edge5_Node000004_Node000005"><a xlink:title=" ">
<path fill="none" stroke="#63b8ff" d="M593.19,-70.41C510.98,-64.01 352.61,-50.23 219,-30 216.06,-29.55 213.05,-29.07 210.02,-28.56"/>
<polygon fill="#63b8ff" stroke="#63b8ff" points="593.08,-73.92 603.32,-71.2 593.61,-66.94 593.08,-73.92"/>
</a>
</g>
</g>
<!-- Node6 -->
<g id="Node000006" class="node">
<title>Node6</title>
<g id="a_Node000006"><a xlink:href="atmega328p_2ktos__bsp_8c.html" target="_top" xlink:title="KTOS Board Support Package — ATmega328P (AVR 8&#45;bit)">
<polygon fill="white" stroke="#666666" points="350,-30 228,-30 228,0 350,0 350,-30"/>
<text text-anchor="start" x="236" y="-18" font-family="Helvetica,sans-Serif" font-size="10.00">bsp/atmega328p/ktos</text>
<text text-anchor="middle" x="289" y="-7" font-family="Helvetica,sans-Serif" font-size="10.00">_bsp.c</text>
</a>
</g>
</g>
<!-- Node4&#45;&gt;Node6 -->
<g id="edge6_Node000004_Node000006" class="edge">
<title>Node4&#45;&gt;Node6</title>
<g id="a_edge6_Node000004_Node000006"><a xlink:title=" ">
<path fill="none" stroke="#63b8ff" d="M593.31,-66.72C534.83,-58.36 440.27,-44.35 359,-30 356.07,-29.48 353.08,-28.94 350.05,-28.38"/>
<polygon fill="#63b8ff" stroke="#63b8ff" points="593.04,-70.21 603.44,-68.16 594.03,-63.28 593.04,-70.21"/>
</a>
</g>
</g>
<!-- Node7 -->
<g id="Node000007" class="node">
<title>Node7</title>
<g id="a_Node000007"><a xlink:href="atmega32u4_2ktos__bsp_8c.html" target="_top" xlink:title="KTOS Board Support Package — ATmega32U4 (AVR 8&#45;bit)">
<polygon fill="white" stroke="#666666" points="490,-30 368,-30 368,0 490,0 490,-30"/>
<text text-anchor="start" x="376" y="-18" font-family="Helvetica,sans-Serif" font-size="10.00">bsp/atmega32u4/ktos</text>
<text text-anchor="middle" x="429" y="-7" font-family="Helvetica,sans-Serif" font-size="10.00">_bsp.c</text>
</a>
</g>
</g>
<!-- Node4&#45;&gt;Node7 -->
<g id="edge7_Node000004_Node000007" class="edge">
<title>Node4&#45;&gt;Node7</title>
<g id="a_edge7_Node000004_Node000007"><a xlink:title=" ">
<path fill="none" stroke="#63b8ff" d="M606.96,-63.32C571.39,-53.86 520.24,-40.26 481.89,-30.06"/>
<polygon fill="#63b8ff" stroke="#63b8ff" points="606.45,-66.81 617.01,-65.99 608.25,-60.04 606.45,-66.81"/>
</a>
</g>
</g>
<!-- Node8 -->
<g id="Node000008" class="node">
<title>Node8</title>
<g id="a_Node000008"><a xlink:href="attiny85_2ktos__bsp_8c.html" target="_top" xlink:title="KTOS Board Support Package — ATtiny85 (AVR 8&#45;bit)">
<polygon fill="white" stroke="#666666" points="640,-24.5 508,-24.5 508,-5.5 640,-5.5 640,-24.5"/>
<text text-anchor="middle" x="574" y="-12.5" font-family="Helvetica,sans-Serif" font-size="10.00">bsp/attiny85/ktos_bsp.c</text>
</a>
</g>
</g>
<!-- Node4&#45;&gt;Node8 -->
<g id="edge8_Node000004_Node000008" class="edge">
<title>Node4&#45;&gt;Node8</title>
<g id="a_edge8_Node000004_Node000008"><a xlink:title=" ">
<path fill="none" stroke="#63b8ff" d="M629.82,-59.54C615.65,-48.49 596.87,-33.84 585.11,-24.67"/>
<polygon fill="#63b8ff" stroke="#63b8ff" points="627.9,-62.48 637.93,-65.87 632.2,-56.96 627.9,-62.48"/>
</a>
</g>
</g>
<!-- Node9 -->
<g id="Node000009" class="node">
<title>Node9</title>
<g id="a_Node000009"><a xlink:href="esp8266_2ktos__bsp_8c.html" target="_top" xlink:title="KTOS Board Support Package — ESP8266 (Xtensa LX106) — partial.">
<polygon fill="white" stroke="#666666" points="791.5,-24.5 658.5,-24.5 658.5,-5.5 791.5,-5.5 791.5,-24.5"/>
<text text-anchor="middle" x="725" y="-12.5" font-family="Helvetica,sans-Serif" font-size="10.00">bsp/esp8266/ktos_bsp.c</text>
</a>
</g>
</g>
<!-- Node4&#45;&gt;Node9 -->
<g id="edge9_Node000004_Node000009" class="edge">
<title>Node4&#45;&gt;Node9</title>
<g id="a_edge9_Node000004_Node000009"><a xlink:title=" ">
<path fill="none" stroke="#63b8ff" d="M668.44,-59.54C682.79,-48.49 701.82,-33.84 713.74,-24.67"/>
<polygon fill="#63b8ff" stroke="#63b8ff" points="666,-56.99 660.21,-65.87 670.27,-62.54 666,-56.99"/>
</a>
</g>
</g>
<!-- Node10 -->
<g id="Node000010" class="node">
<title>Node10</title>
<g id="a_Node000010"><a xlink:href="msp430g2553_2ktos__bsp_8c.html" target="_top" xlink:title="KTOS Board Support Package — MSP430G2553 (MSP430 16&#45;bit)">
<polygon fill="white" stroke="#666666" points="940,-30 810,-30 810,0 940,0 940,-30"/>
<text text-anchor="start" x="818" y="-18" font-family="Helvetica,sans-Serif" font-size="10.00">bsp/msp430g2553/ktos</text>
<text text-anchor="middle" x="875" y="-7" font-family="Helvetica,sans-Serif" font-size="10.00">_bsp.c</text>
</a>
</g>
</g>
<!-- Node4&#45;&gt;Node10 -->
<g id="edge10_Node000004_Node000010" class="edge">
<title>Node4&#45;&gt;Node10</title>
<g id="a_edge10_Node000004_Node000010"><a xlink:title=" ">
<path fill="none" stroke="#63b8ff" d="M691.72,-63.44C728.27,-53.98 781.11,-40.3 820.67,-30.06"/>
<polygon fill="#63b8ff" stroke="#63b8ff" points="690.67,-60.1 681.86,-65.99 692.42,-66.88 690.67,-60.1"/>
</a>
</g>
</g>
<!-- Node11 -->
<g id="Node000011" class="node">
<title>Node11</title>
<g id="a_Node000011"><a xlink:href="pic18f_2ktos__bsp_8c.html" target="_top" xlink:title="KTOS Board Support Package — PIC18F4550 (PIC18 8&#45;bit) [Experimental].">
<polygon fill="white" stroke="#666666" points="1080,-24.5 958,-24.5 958,-5.5 1080,-5.5 1080,-24.5"/>
<text text-anchor="middle" x="1019" y="-12.5" font-family="Helvetica,sans-Serif" font-size="10.00">bsp/pic18f/ktos_bsp.c</text>
</a>
</g>
</g>
<!-- Node4&#45;&gt;Node11 -->
<g id="edge11_Node000004_Node000011" class="edge">
<title>Node4&#45;&gt;Node11</title>
<g id="a_edge11_Node000004_Node000011"><a xlink:title=" ">
<path fill="none" stroke="#63b8ff" d="M704.77,-65.75C813.95,-49.36 843.31,-48.29 949,-30 958.53,-28.35 968.74,-26.41 978.35,-24.5"/>
<polygon fill="#63b8ff" stroke="#63b8ff" points="704.02,-62.32 694.66,-67.28 705.07,-69.24 704.02,-62.32"/>
</a>
</g>
</g>
<!-- Node12 -->
<g id="Node000012" class="node">
<title>Node12</title>
<g id="a_Node000012"><a xlink:href="sam3x8e_2ktos__bsp_8c.html" target="_top" xlink:title="KTOS Board Support Package — Atmel SAM3X8E (ARM Cortex&#45;M3)">
<polygon fill="white" stroke="#666666" points="1235.5,-24.5 1098.5,-24.5 1098.5,-5.5 1235.5,-5.5 1235.5,-24.5"/>
<text text-anchor="middle" x="1167" y="-12.5" font-family="Helvetica,sans-Serif" font-size="10.00">bsp/sam3x8e/ktos_bsp.c</text>
</a>
</g>
</g>
<!-- Node4&#45;&gt;Node12 -->
<g id="edge12_Node000004_Node000012" class="edge">
<title>Node4&#45;&gt;Node12</title>
<g id="a_edge12_Node000004_Node000012"><a xlink:title=" ">
<path fill="none" stroke="#63b8ff" d="M704.74,-65.86C875.7,-44.91 921.53,-52.8 1089,-30 1100.18,-28.48 1112.2,-26.5 1123.37,-24.5"/>
<polygon fill="#63b8ff" stroke="#63b8ff" points="704.13,-62.4 694.64,-67.11 704.99,-69.35 704.13,-62.4"/>
</a>
</g>
</g>
<!-- Node13 -->
<g id="Node000013" class="node">
<title>Node13</title>
<g id="a_Node000013"><a xlink:href="stm32f030_2ktos__bsp_8c.html" target="_top" xlink:title="KTOS Board Support Package — STM32F030 (ARM Cortex&#45;M0)">
<polygon fill="white" stroke="#666666" points="1366.5,-30 1253.5,-30 1253.5,0 1366.5,0 1366.5,-30"/>
<text text-anchor="start" x="1261.5" y="-18" font-family="Helvetica,sans-Serif" font-size="10.00">bsp/stm32f030/ktos</text>
<text text-anchor="middle" x="1310" y="-7" font-family="Helvetica,sans-Serif" font-size="10.00">_bsp.c</text>
</a>
</g>
</g>
<!-- Node4&#45;&gt;Node13 -->
<g id="edge13_Node000004_Node000013" class="edge">
<title>Node4&#45;&gt;Node13</title>
<g id="a_edge13_Node000004_Node000013"><a xlink:title=" ">
<path fill="none" stroke="#63b8ff" d="M704.71,-65.91C944.68,-39.86 1009.19,-63.05 1245,-30 1247.74,-29.62 1250.54,-29.18 1253.37,-28.71"/>
<polygon fill="#63b8ff" stroke="#63b8ff" points="704.18,-62.45 694.63,-67.02 704.95,-69.41 704.18,-62.45"/>
</a>
</g>
</g>
<!-- Node14 -->
<g id="Node000014" class="node">
<title>Node14</title>
<g id="a_Node000014"><a xlink:href="stm32f103_2ktos__bsp_8c.html" target="_top" xlink:title="KTOS Board Support Package — STM32F103 (ARM Cortex&#45;M3)">
<polygon fill="white" stroke="#666666" points="1497.5,-30 1384.5,-30 1384.5,0 1497.5,0 1497.5,-30"/>
<text text-anchor="start" x="1392.5" y="-18" font-family="Helvetica,sans-Serif" font-size="10.00">bsp/stm32f103/ktos</text>
<text text-anchor="middle" x="1441" y="-7" font-family="Helvetica,sans-Serif" font-size="10.00">_bsp.c</text>
</a>
</g>
</g>
<!-- Node4&#45;&gt;Node14 -->
<g id="edge14_Node000004_Node000014" class="edge">
<title>Node4&#45;&gt;Node14</title>
<g id="a_edge14_Node000004_Node000014"><a xlink:title=" ">
<path fill="none" stroke="#63b8ff" d="M704.85,-65.92C1002.68,-35.45 1082.43,-69.21 1376,-30 1378.75,-29.63 1381.55,-29.21 1384.37,-28.75"/>
<polygon fill="#63b8ff" stroke="#63b8ff" points="704.21,-62.47 694.62,-66.98 704.93,-69.43 704.21,-62.47"/>
</a>
</g>
</g>
<!-- Node15 -->
<g id="Node000015" class="node">
<title>Node15</title>
<g id="a_Node000015"><a xlink:href="stm32l031_2ktos__bsp_8c.html" target="_top" xlink:title="KTOS Board Support Package — STM32L031 (ARM Cortex&#45;M0+)">
<polygon fill="white" stroke="#666666" points="1628.5,-30 1515.5,-30 1515.5,0 1628.5,0 1628.5,-30"/>
<text text-anchor="start" x="1523.5" y="-18" font-family="Helvetica,sans-Serif" font-size="10.00">bsp/stm32l031/ktos</text>
<text text-anchor="middle" x="1572" y="-7" font-family="Helvetica,sans-Serif" font-size="10.00">_bsp.c</text>
</a>
</g>
</g>
<!-- Node4&#45;&gt;Node15 -->
<g id="edge15_Node000004_Node000015" class="edge">
<title>Node4&#45;&gt;Node15</title>
<g id="a_edge15_Node000004_Node000015"><a xlink:title=" ">
<path fill="none" stroke="#63b8ff" d="M704.69,-65.95C1060.64,-30.97 1155.55,-75.39 1507,-30 1509.75,-29.65 1512.55,-29.23 1515.38,-28.78"/>
<polygon fill="#63b8ff" stroke="#63b8ff" points="704.22,-62.48 694.62,-66.95 704.92,-69.44 704.22,-62.48"/>
</a>
</g>
</g>
</g>
</svg>

<g id="navigator" transform="translate(0 0)" fill="#404254">
  <rect fill="#f2f5e9" fill-opacity="0.5" stroke="#606060" stroke-width=".5" x="0" y="0" width="60" height="60"/>
  <use id="zoomplus" xlink:href="#zoomPlus" x="17" y="9" onmousedown="handleZoom(evt,'in')"/>
  <use id="zoomminus" xlink:href="#zoomMin" x="42" y="9" onmousedown="handleZoom(evt,'out')"/>
  <use id="reset" xlink:href="#resetDef" x="30" y="36" onmousedown="handleReset()"/>
   <use id="arrowup" xlink:href="#arrowUp" x="0" y="0" onmousedown="handlePan(0,-1)"/>
  <use id="arrowright" xlink:href="#arrowRight" x="0" y="0" onmousedown="handlePan(1,0)"/>
  <use id="arrowdown" xlink:href="#arrowDown" x="0" y="0" onmousedown="handlePan(0,1)"/>
  <use id="arrowleft" xlink:href="#arrowLeft" x="0" y="0" onmousedown="handlePan(-1,0)"/>
</g>
<svg viewBox="0 0 15 15" width="100%" height="30px" preserveAspectRatio="xMaxYMin meet">
 <g id="arrow_out" transform="scale(0.3 0.3)">
  <a xlink:href="ktos__multi_8h__dep__incl_org.svg" target="_base">
   <rect id="button" ry="5" rx="5" y="6" x="6" height="38" width="38"
        fill="#f2f5e9" fill-opacity="0.5" stroke="#606060" stroke-width="1.0"/>
   <path id="arrow"
     d="M 11.500037,31.436501 C 11.940474,20.09759 22.043105,11.32322 32.158766,21.979434 L 37.068811,17.246167 C 37.068811,17.246167 37.088388,32 37.088388,32 L 22.160133,31.978069 C 22.160133,31.978069 26.997745,27.140456 26.997745,27.140456 C 18.528582,18.264221 13.291696,25.230495 11.500037,31.436501 z"
     style="fill:#404040;"/>
  </a>
 </g>
</svg>

<style type='text/css'>
<![CDATA[
[data-mouse-over-selected='false'] { opacity: 0.7; }
[data-mouse-over-selected='true']  { opacity: 1.0; }
]]>
</style>
<script type="application/ecmascript"><![CDATA[
document.addEventListener('DOMContentLoaded', (event) => {
  highlightEdges();
  highlightAdjacentNodes();
});
]]></script>
</svg>
