<?xml version="1.0" encoding="UTF-8" standalone="no"?>
<!DOCTYPE svg PUBLIC "-//W3C//DTD SVG 1.1//EN"
 "http://www.w3.org/Graphics/SVG/1.1/DTD/svg11.dtd">
<!-- Generated by graphviz version 2.43.0 (0)
 -->
<!-- Title: core/ktos.h Pages: 1 -->
<svg width="1637pt" height="148pt"
 viewBox="0.00 0.00 1636.50 148.00" xmlns="http://www.w3.org/2000/svg" xmlns:xlink="http://www.w3.org/1999/xlink">
<g id="graph0" class="graph" transform="scale(1 1) rotate(0) translate(4 144)">
<title>core/ktos.h</title>
<!-- Node1 -->
<g id="Node000001" class="node">
<title>Node1</title>
<g id="a_Node000001"><a xlink:title="KTOS public API — include this in your application code.">
<polygon fill="#999999" stroke="#666666" points="760.5,-140 689.5,-140 689.5,-121 760.5,-121 760.5,-140"/>
<text text-anchor="middle" x="725" y="-128" font-family="Helvetica,sans-Serif" font-size="10.00">core/ktos.h</text>
</a>
</g>
</g>
<!-- Node2 -->
<g id="Node000002" class="node">
<title>Node2</title>
<g id="a_Node000002"><a xlink:href="ktos_8c.html" target="_top" xlink:title="KTOS cooperative scheduler implementation.">
<polygon fill="white" stroke="#666666" points="70,-24.5 0,-24.5 0,-5.5 70,-5.5 70,-24.5"/>
<text text-anchor="middle" x="35" y="-12.5" font-family="Helvetica,sans-Serif" font-size="10.00">core/ktos.c</text>
</a>
</g>
</g>
<!-- Node1&#45;&gt;Node2 -->
<g id="edge1_Node000001_Node000002" class="edge">
<title>Node1&#45;&gt;Node2</title>
<g id="a_edge1_Node000001_Node000002"><a xlink:title=" ">
<path fill="none" stroke="#63b8ff" d="M679.19,-124.92C572.8,-113.74 301.12,-82.11 79,-30 72.6,-28.5 65.79,-26.52 59.48,-24.53"/>
<polygon fill="#63b8ff" stroke="#63b8ff" points="678.96,-128.41 689.27,-125.97 679.68,-121.45 678.96,-128.41"/>
</a>
</g>
</g>
<!-- Node3 -->
<g id="Node000003" class="node">
<title>Node3</title>
<g id="a_Node000003"><a xlink:href="ktos__hal_8h.html" target="_top" xlink:title="KTOS Hardware Abstraction Layer (HAL) interface.">
<polygon fill="white" stroke="#666666" points="770.5,-85 679.5,-85 679.5,-66 770.5,-66 770.5,-85"/>
<text text-anchor="middle" x="725" y="-73" font-family="Helvetica,sans-Serif" font-size="10.00">core/ktos_hal.h</text>
</a>
</g>
</g>
<!-- Node1&#45;&gt;Node3 -->
<g id="edge2_Node000001_Node000003" class="edge">
<title>Node1&#45;&gt;Node3</title>
<g id="a_edge2_Node000001_Node000003"><a xlink:title=" ">
<path fill="none" stroke="#63b8ff" d="M725,-110.66C725,-101.93 725,-91.99 725,-85.09"/>
<polygon fill="#63b8ff" stroke="#63b8ff" points="721.5,-110.75 725,-120.75 728.5,-110.75 721.5,-110.75"/>
</a>
</g>
</g>
<!-- Node15 -->
<g id="Node000015" class="node">
<title>Node15</title>
<g id="a_Node000015"><a xlink:href="ktos__multi_8c.html" target="_top" xlink:title=" ">
<polygon fill="white" stroke="#666666" points="889.5,-85 788.5,-85 788.5,-66 889.5,-66 889.5,-85"/>
<text text-anchor="middle" x="839" y="-73" font-family="Helvetica,sans-Serif" font-size="10.00">core/ktos_multi.c</text>
</a>
</g>
</g>
<!-- Node1&#45;&gt;Node15 -->
<g id="edge15_Node000001_Node000015" class="edge">
<title>Node1&#45;&gt;Node15</title>
<g id="a_edge15_Node000001_Node000015"><a xlink:title=" ">
<path fill="none" stroke="#63b8ff" d="M752.39,-116.77C773.42,-106.99 801.89,-93.75 820.35,-85.17"/>
<polygon fill="#63b8ff" stroke="#63b8ff" points="750.91,-113.6 743.32,-120.98 753.86,-119.94 750.91,-113.6"/>
</a>
</g>
</g>
<!-- Node3&#45;&gt;Node2 -->
<g id="edge14_Node000003_Node000002" class="edge">
<title>Node3&#45;&gt;Node2</title>
<g id="a_edge14_Node000003_Node000002"><a xlink:title=" ">
<path fill="none" stroke="#63b8ff" d="M669.4,-75.12C556.86,-75.39 294.51,-71.09 79,-30 72.23,-28.71 65.04,-26.71 58.48,-24.61"/>
<polygon fill="#63b8ff" stroke="#63b8ff" points="669.5,-78.62 679.49,-75.08 669.48,-71.62 669.5,-78.62"/>
</a>
</g>
</g>
<!-- Node4 -->
<g id="Node000004" class="node">
<title>Node4</title>
<g id="a_Node000004"><a xlink:href="atmega2560_2ktos__bsp_8c.html" target="_top" xlink:title="KTOS Board Support Package — ATmega2560 (AVR 8&#45;bit)">
<polygon fill="white" stroke="#666666" points="210,-30 88,-30 88,0 210,0 210,-30"/>
<text text-anchor="start" x="96" y="-18" font-family="Helvetica,sans-Serif" font-size="10.00">bsp/atmega2560/ktos</text>
<text text-anchor="middle" x="149" y="-7" font-family="Helvetica,sans-Serif" font-size="10.00">_bsp.c</text>
</a>
</g>
</g>
<!-- Node3&#45;&gt;Node4 -->
<g id="edge3_Node000003_Node000004" class="edge">
<title>Node3&#45;&gt;Node4</title>
<g id="a_edge3_Node000003_Node000004"><a xlink:title=" ">
<path fill="none" stroke="#63b8ff" d="M669.38,-71.61C575.96,-66.31 381.81,-53.37 219,-30 216.06,-29.58 213.05,-29.11 210.02,-28.61"/>
<polygon fill="#63b8ff" stroke="#63b8ff" points="669.27,-75.11 679.45,-72.17 669.66,-68.12 669.27,-75.11"/>
</a>
</g>
</g>
<!-- Node5 -->
<g id="Node000005" class="node">
<title>Node5</title>
<g id="a_Node000005"><a xlink:href="atmega328p_2ktos__bsp_8c.html" target="_top" xlink:title="KTOS Board Support Package — ATmega328P (AVR 8&#45;bit)">
<polygon fill="white" stroke="#666666" points="350,-30 228,-30 228,0 350,0 350,-30"/>
<text text-anchor="start" x="236" y="-18" font-family="Helvetica,sans-Serif" font-size="10.00">bsp/atmega328p/ktos</text>
<text text-anchor="middle" x="289" y="-7" font-family="Helvetica,sans-Serif" font-size="10.00">_bsp.c</text>
</a>
</g>
</g>
<!-- Node3&#45;&gt;Node5 -->
<g id="edge4_Node000003_Node000005" class="edge">
<title>Node3&#45;&gt;Node5</title>
<g id="a_edge4_Node000003_Node000005"><a xlink:title=" ">
<path fill="none" stroke="#63b8ff" d="M669.29,-69.07C597.39,-61.74 468.48,-47.58 359,-30 356.06,-29.53 353.06,-29.02 350.03,-28.49"/>
<polygon fill="#63b8ff" stroke="#63b8ff" points="669.18,-72.57 679.48,-70.1 669.88,-65.61 669.18,-72.57"/>
</a>
</g>
</g>
<!-- Node6 -->
<g id="Node000006" class="node">
<title>Node6</title>
<g id="a_Node000006"><a xlink:href="atmega32u4_2ktos__bsp_8c.html" target="_top" xlink:title="KTOS Board Support Package — ATmega32U4 (AVR 8&#45;bit)">
<polygon fill="white" stroke="#666666" points="490,-30 368,-30 368,0 490,0 490,-30"/>
<text text-anchor="start" x="376" y="-18" font-family="Helvetica,sans-Serif" font-size="10.00">bsp/atmega32u4/ktos</text>
<text text-anchor="middle" x="429" y="-7" font-family="Helvetica,sans-Serif" font-size="10.00">_bsp.c</text>
</a>
</g>
</g>
<!-- Node3&#45;&gt;Node6 -->
<g id="edge5_Node000003_Node000006" class="edge">
<title>Node3&#45;&gt;Node6</title>
<g id="a_edge5_Node000003_Node000006"><a xlink:title=" ">
<path fill="none" stroke="#63b8ff" d="M671.24,-63.96C625.45,-54.97 557.89,-41.69 499,-30 496.08,-29.42 493.1,-28.83 490.08,-28.23"/>
<polygon fill="#63b8ff" stroke="#63b8ff" points="670.76,-67.43 681.24,-65.92 672.11,-60.56 670.76,-67.43"/>
</a>
</g>
</g>
<!-- Node7 -->
<g id="Node000007" class="node">
<title>Node7</title>
<g id="a_Node000007"><a xlink:href="attiny85_2ktos__bsp_8c.html" target="_top" xlink:title="KTOS Board Support Package — ATtiny85 (AVR 8&#45;bit)">
<polygon fill="white" stroke="#666666" points="640,-24.5 508,-24.5 508,-5.5 640,-5.5 640,-24.5"/>
<text text-anchor="middle" x="574" y="-12.5" font-family="Helvetica,sans-Serif" font-size="10.00">bsp/attiny85/ktos_bsp.c</text>
</a>
</g>
</g>
<!-- Node3&#45;&gt;Node7 -->
<g id="edge6_Node000003_Node000007" class="edge">
<title>Node3&#45;&gt;Node7</title>
<g id="a_edge6_Node000003_Node000007"><a xlink:title=" ">
<path fill="none" stroke="#63b8ff" d="M693.71,-62.38C664.52,-51.07 621.72,-34.49 595.98,-24.52"/>
<polygon fill="#63b8ff" stroke="#63b8ff" points="692.45,-65.64 703.04,-65.99 694.98,-59.12 692.45,-65.64"/>
</a>
</g>
</g>
<!-- Node8 -->
<g id="Node000008" class="node">
<title>Node8</title>
<g id="a_Node000008"><a xlink:href="esp8266_2ktos__bsp_8c.html" target="_top" xlink:title="KTOS Board Support Package — ESP8266 (Xtensa LX106) — partial.">
<polygon fill="white" stroke="#666666" points="791.5,-24.5 658.5,-24.5 658.5,-5.5 791.5,-5.5 791.5,-24.5"/>
<text text-anchor="middle" x="725" y="-12.5" font-family="Helvetica,sans-Serif" font-size="10.00">bsp/esp8266/ktos_bsp.c</text>
</a>
</g>
</g>
<!-- Node3&#45;&gt;Node8 -->
<g id="edge7_Node000003_Node000008" class="edge">
<title>Node3&#45;&gt;Node8</title>
<g id="a_edge7_Node000003_Node000008"><a xlink:title=" ">
<path fill="none" stroke="#63b8ff" d="M725,-55.66C725,-45.24 725,-32.8 725,-24.67"/>
<polygon fill="#63b8ff" stroke="#63b8ff" points="721.5,-55.87 725,-65.87 728.5,-55.87 721.5,-55.87"/>
</a>
</g>
</g>
<!-- Node9 -->
<g id="Node000009" class="node">
<title>Node9</title>
<g id="a_Node000009"><a xlink:href="msp430g2553_2ktos__bsp_8c.html" target="_top" xlink:title="KTOS Board Support Package — MSP430G2553 (MSP430 16&#45;bit)">
<polygon fill="white" stroke="#666666" points="940,-30 810,-30 810,0 940,0 940,-30"/>
<text text-anchor="start" x="818" y="-18" font-family="Helvetica,sans-Serif" font-size="10.00">bsp/msp430g2553/ktos</text>
<text text-anchor="middle" x="875" y="-7" font-family="Helvetica,sans-Serif" font-size="10.00">_bsp.c</text>
</a>
</g>
</g>
<!-- Node3&#45;&gt;Node9 -->
<g id="edge8_Node000003_Node000009" class="edge">
<title>Node3&#45;&gt;Node9</title>
<g id="a_edge8_Node000003_Node000009"><a xlink:title=" ">
<path fill="none" stroke="#63b8ff" d="M756.2,-62.33C780.3,-52.93 813.69,-39.91 838.94,-30.06"/>
<polygon fill="#63b8ff" stroke="#63b8ff" points="754.86,-59.1 746.81,-65.99 757.4,-65.62 754.86,-59.1"/>
</a>
</g>
</g>
<!-- Node10 -->
<g id="Node000010" class="node">
<title>Node10</title>
<g id="a_Node000010"><a xlink:href="pic18f_2ktos__bsp_8c.html" target="_top" xlink:title="KTOS Board Support Package — PIC18F4550 (PIC18 8&#45;bit) [Experimental].">
<polygon fill="white" stroke="#666666" points="1080,-24.5 958,-24.5 958,-5.5 1080,-5.5 1080,-24.5"/>
<text text-anchor="middle" x="1019" y="-12.5" font-family="Helvetica,sans-Serif" font-size="10.00">bsp/pic18f/ktos_bsp.c</text>
</a>
</g>
</g>
<!-- Node3&#45;&gt;Node10 -->
<g id="edge9_Node000003_Node000010" class="edge">
<title>Node3&#45;&gt;Node10</title>
<g id="a_edge9_Node000003_Node000010"><a xlink:title=" ">
<path fill="none" stroke="#63b8ff" d="M777.86,-64.02C823.25,-55.01 890.44,-41.67 949,-30 957.87,-28.23 967.38,-26.33 976.43,-24.52"/>
<polygon fill="#63b8ff" stroke="#63b8ff" points="777.07,-60.61 767.95,-65.99 778.44,-67.47 777.07,-60.61"/>
</a>
</g>
</g>
<!-- Node11 -->
<g id="Node000011" class="node">
<title>Node11</title>
<g id="a_Node000011"><a xlink:href="sam3x8e_2ktos__bsp_8c.html" target="_top" xlink:title="KTOS Board Support Package — Atmel SAM3X8E (ARM Cortex&#45;M3)">
<polygon fill="white" stroke="#666666" points="1235.5,-24.5 1098.5,-24.5 1098.5,-5.5 1235.5,-5.5 1235.5,-24.5"/>
<text text-anchor="middle" x="1167" y="-12.5" font-family="Helvetica,sans-Serif" font-size="10.00">bsp/sam3x8e/ktos_bsp.c</text>
</a>
</g>
</g>
<!-- Node3&#45;&gt;Node11 -->
<g id="edge10_Node000003_Node000011" class="edge">
<title>Node3&#45;&gt;Node11</title>
<g id="a_edge10_Node000003_Node000011"><a xlink:title=" ">
<path fill="none" stroke="#63b8ff" d="M780.71,-65.96C918.72,-47.56 955.43,-49.75 1089,-30 1099.75,-28.41 1111.3,-26.47 1122.12,-24.54"/>
<polygon fill="#63b8ff" stroke="#63b8ff" points="780.04,-62.52 770.6,-67.32 780.98,-69.45 780.04,-62.52"/>
</a>
</g>
</g>
<!-- Node12 -->
<g id="Node000012" class="node">
<title>Node12</title>
<g id="a_Node000012"><a xlink:href="stm32f030_2ktos__bsp_8c.html" target="_top" xlink:title="KTOS Board Support Package — STM32F030 (ARM Cortex&#45;M0)">
<polygon fill="white" stroke="#666666" points="1366.5,-30 1253.5,-30 1253.5,0 1366.5,0 1366.5,-30"/>
<text text-anchor="start" x="1261.5" y="-18" font-family="Helvetica,sans-Serif" font-size="10.00">bsp/stm32f030/ktos</text>
<text text-anchor="middle" x="1310" y="-7" font-family="Helvetica,sans-Serif" font-size="10.00">_bsp.c</text>
</a>
</g>
</g>
<!-- Node3&#45;&gt;Node12 -->
<g id="edge11_Node000003_Node000012" class="edge">
<title>Node3&#45;&gt;Node12</title>
<g id="a_edge11_Node000003_Node000012"><a xlink:title=" ">
<path fill="none" stroke="#63b8ff" d="M780.56,-66.04C987.63,-42.7 1043.09,-59.42 1245,-30 1247.74,-29.6 1250.54,-29.15 1253.36,-28.67"/>
<polygon fill="#63b8ff" stroke="#63b8ff" points="780.12,-62.57 770.58,-67.18 780.92,-69.52 780.12,-62.57"/>
</a>
</g>
</g>
<!-- Node13 -->
<g id="Node000013" class="node">
<title>Node13</title>
<g id="a_Node000013"><a xlink:href="stm32f103_2ktos__bsp_8c.html" target="_top" xlink:title="KTOS Board Support Package — STM32F103 (ARM Cortex&#45;M3)">
<polygon fill="white" stroke="#666666" points="1497.5,-30 1384.5,-30 1384.5,0 1497.5,0 1497.5,-30"/>
<text text-anchor="start" x="1392.5" y="-18" font-family="Helvetica,sans-Serif" font-size="10.00">bsp/stm32f103/ktos</text>
<text text-anchor="middle" x="1441" y="-7" font-family="Helvetica,sans-Serif" font-size="10.00">_bsp.c</text>
</a>
</g>
</g>
<!-- Node3&#45;&gt;Node13 -->
<g id="edge12_Node000003_Node000013" class="edge">
<title>Node3&#45;&gt;Node13</title>
<g id="a_edge12_Node000003_Node000013"><a xlink:title=" ">
<path fill="none" stroke="#63b8ff" d="M780.89,-66.03C1045.65,-38.41 1116.42,-65.58 1376,-30 1378.74,-29.62 1381.55,-29.19 1384.37,-28.73"/>
<polygon fill="#63b8ff" stroke="#63b8ff" points="780.15,-62.59 770.58,-67.12 780.89,-69.55 780.15,-62.59"/>
</a>
</g>
</g>
<!-- Node14 -->
<g id="Node000014" class="node">
<title>Node14</title>
<g id="a_Node000014"><a xlink:href="stm32l031_2ktos__bsp_8c.html" target="_top" xlink:title="KTOS Board Support Package — STM32L031 (ARM Cortex&#45;M0+)">
<polygon fill="white" stroke="#666666" points="1628.5,-30 1515.5,-30 1515.5,0 1628.5,0 1628.5,-30"/>
<text text-anchor="start" x="1523.5" y="-18" font-family="Helvetica,sans-Serif" font-size="10.00">bsp/stm32l031/ktos</text>
<text text-anchor="middle" x="1572" y="-7" font-family="Helvetica,sans-Serif" font-size="10.00">_bsp.c</text>
</a>
</g>
</g>
<!-- Node3&#45;&gt;Node14 -->
<g id="edge13_Node000003_Node000014" class="edge">
<title>Node3&#45;&gt;Node14</title>
<g id="a_edge13_Node000003_Node000014"><a xlink:title=" ">
<path fill="none" stroke="#63b8ff" d="M780.68,-66.07C1103.6,-34.04 1189.55,-71.76 1507,-30 1509.75,-29.64 1512.55,-29.22 1515.37,-28.76"/>
<polygon fill="#63b8ff" stroke="#63b8ff" points="780.17,-62.6 770.57,-67.08 780.87,-69.56 780.17,-62.6"/>
</a>
</g>
</g>
</g>
</svg>
