<?xml version="1.0" encoding="UTF-8" standalone="no"?>
<!DOCTYPE svg PUBLIC "-//W3C//DTD SVG 1.1//EN"
 "http://www.w3.org/Graphics/SVG/1.1/DTD/svg11.dtd">
<!-- Generated by graphviz version 2.43.0 (0)
 -->
<!-- Title: core/ktos.h Pages: 1 -->
<svg width="1928pt" height="159pt"
 viewBox="0.00 0.00 1928.00 159.00" xmlns="http://www.w3.org/2000/svg" xmlns:xlink="http://www.w3.org/1999/xlink">
<g id="graph0" class="graph" transform="scale(1 1) rotate(0) translate(4 155)">
<title>core/ktos.h</title>
<!-- Node1 -->
<g id="Node000001" class="node">
<title>Node1</title>
<g id="a_Node000001"><a xlink:title="KTOS public API — include this in your application code.">
<polygon fill="#999999" stroke="#666666" points="439.5,-151 368.5,-151 368.5,-132 439.5,-132 439.5,-151"/>
<text text-anchor="middle" x="404" y="-139" font-family="Helvetica,sans-Serif" font-size="10.00">core/ktos.h</text>
</a>
</g>
</g>
<!-- Node2 -->
<g id="Node000002" class="node">
<title>Node2</title>
<g id="a_Node000002"><a xlink:href="nrf52840_2ktos__bsp_8c.html" target="_top" xlink:title=" ">
<polygon fill="white" stroke="#666666" points="225.5,-90.5 90.5,-90.5 90.5,-71.5 225.5,-71.5 225.5,-90.5"/>
<text text-anchor="middle" x="158" y="-78.5" font-family="Helvetica,sans-Serif" font-size="10.00">bsp/nrf52840/ktos_bsp.c</text>
</a>
</g>
</g>
<!-- Node1&#45;&gt;Node2 -->
<g id="edge1_Node000001_Node000002" class="edge">
<title>Node1&#45;&gt;Node2</title>
<g id="a_edge1_Node000001_Node000002"><a xlink:title=" ">
<path fill="none" stroke="#63b8ff" d="M358.48,-129.67C310.97,-118.38 237.46,-100.9 193.9,-90.54"/>
<polygon fill="#63b8ff" stroke="#63b8ff" points="357.95,-133.15 368.49,-132.06 359.57,-126.34 357.95,-133.15"/>
</a>
</g>
</g>
<!-- Node3 -->
<g id="Node000003" class="node">
<title>Node3</title>
<g id="a_Node000003"><a xlink:href="stm32f407_2ktos__bsp_8c.html" target="_top" xlink:title=" ">
<polygon fill="white" stroke="#666666" points="356.5,-96 243.5,-96 243.5,-66 356.5,-66 356.5,-96"/>
<text text-anchor="start" x="251.5" y="-84" font-family="Helvetica,sans-Serif" font-size="10.00">bsp/stm32f407/ktos</text>
<text text-anchor="middle" x="300" y="-73" font-family="Helvetica,sans-Serif" font-size="10.00">_bsp.c</text>
</a>
</g>
</g>
<!-- Node1&#45;&gt;Node3 -->
<g id="edge2_Node000001_Node000003" class="edge">
<title>Node1&#45;&gt;Node3</title>
<g id="a_edge2_Node000001_Node000003"><a xlink:title=" ">
<path fill="none" stroke="#63b8ff" d="M379.67,-126.81C363.26,-117.58 341.66,-105.43 325.09,-96.11"/>
<polygon fill="#63b8ff" stroke="#63b8ff" points="378.22,-130.02 388.65,-131.87 381.65,-123.91 378.22,-130.02"/>
</a>
</g>
</g>
<!-- Node4 -->
<g id="Node000004" class="node">
<title>Node4</title>
<g id="a_Node000004"><a xlink:href="template_2ktos__bsp_8c.html" target="_top" xlink:title=" ">
<polygon fill="white" stroke="#666666" points="136,-24.5 0,-24.5 0,-5.5 136,-5.5 136,-24.5"/>
<text text-anchor="middle" x="68" y="-12.5" font-family="Helvetica,sans-Serif" font-size="10.00">bsp/template/ktos_bsp.c</text>
</a>
</g>
</g>
<!-- Node1&#45;&gt;Node4 -->
<g id="edge3_Node000001_Node000004" class="edge">
<title>Node1&#45;&gt;Node4</title>
<g id="a_edge3_Node000001_Node000004"><a xlink:title=" ">
<path fill="none" stroke="#63b8ff" d="M399.66,-121.89C394.6,-104.57 384.47,-79.48 366,-66 285.61,-7.35 243.07,-46.9 145,-30 134.96,-28.27 124.19,-26.35 113.99,-24.5"/>
<polygon fill="#63b8ff" stroke="#63b8ff" points="396.37,-123.15 402.29,-131.94 403.14,-121.38 396.37,-123.15"/>
</a>
</g>
</g>
<!-- Node5 -->
<g id="Node000005" class="node">
<title>Node5</title>
<g id="a_Node000005"><a xlink:href="ktos_8c.html" target="_top" xlink:title="KTOS cooperative scheduler implementation.">
<polygon fill="white" stroke="#666666" points="224,-24.5 154,-24.5 154,-5.5 224,-5.5 224,-24.5"/>
<text text-anchor="middle" x="189" y="-12.5" font-family="Helvetica,sans-Serif" font-size="10.00">core/ktos.c</text>
</a>
</g>
</g>
<!-- Node1&#45;&gt;Node5 -->
<g id="edge4_Node000001_Node000005" class="edge">
<title>Node1&#45;&gt;Node5</title>
<g id="a_edge4_Node000001_Node000005"><a xlink:title=" ">
<path fill="none" stroke="#63b8ff" d="M408.44,-121.76C411.2,-105.12 412.08,-81.15 399,-66 349.67,-8.85 305.94,-49.47 233,-30 226.96,-28.39 220.51,-26.46 214.47,-24.55"/>
<polygon fill="#63b8ff" stroke="#63b8ff" points="404.94,-121.42 406.38,-131.92 411.8,-122.81 404.94,-121.42"/>
</a>
</g>
</g>
<!-- Node6 -->
<g id="Node000006" class="node">
<title>Node6</title>
<g id="a_Node000006"><a xlink:href="ktos__common_8c.html" target="_top" xlink:title=" ">
<polygon fill="white" stroke="#666666" points="978,-90.5 860,-90.5 860,-71.5 978,-71.5 978,-90.5"/>
<text text-anchor="middle" x="919" y="-78.5" font-family="Helvetica,sans-Serif" font-size="10.00">core/ktos_common.c</text>
</a>
</g>
</g>
<!-- Node1&#45;&gt;Node6 -->
<g id="edge5_Node000001_Node000006" class="edge">
<title>Node1&#45;&gt;Node6</title>
<g id="a_edge5_Node000001_Node000006"><a xlink:title=" ">
<path fill="none" stroke="#63b8ff" d="M449.87,-137.51C531.06,-131.87 705.27,-118.19 851,-96 860.77,-94.51 871.26,-92.54 881,-90.55"/>
<polygon fill="#63b8ff" stroke="#63b8ff" points="449.24,-134.05 439.5,-138.22 449.72,-141.03 449.24,-134.05"/>
</a>
</g>
</g>
<!-- Node7 -->
<g id="Node000007" class="node">
<title>Node7</title>
<g id="a_Node000007"><a xlink:href="ktos__hal_8h.html" target="_top" xlink:title="KTOS Hardware Abstraction Layer (HAL) interface.">
<polygon fill="white" stroke="#666666" points="841.5,-90.5 750.5,-90.5 750.5,-71.5 841.5,-71.5 841.5,-90.5"/>
<text text-anchor="middle" x="796" y="-78.5" font-family="Helvetica,sans-Serif" font-size="10.00">core/ktos_hal.h</text>
</a>
</g>
</g>
<!-- Node1&#45;&gt;Node7 -->
<g id="edge6_Node000001_Node000007" class="edge">
<title>Node1&#45;&gt;Node7</title>
<g id="a_edge6_Node000001_Node000007"><a xlink:title=" ">
<path fill="none" stroke="#63b8ff" d="M449.98,-133.64C525.49,-122.37 674.9,-100.07 750.26,-88.83"/>
<polygon fill="#63b8ff" stroke="#63b8ff" points="449.2,-130.22 439.83,-135.15 450.23,-137.14 449.2,-130.22"/>
</a>
</g>
</g>
<!-- Node7&#45;&gt;Node4 -->
<g id="edge19_Node000007_Node000004" class="edge">
<title>Node7&#45;&gt;Node4</title>
<g id="a_edge19_Node000007_Node000004"><a xlink:title=" ">
<path fill="none" stroke="#63b8ff" d="M740.34,-77.66C627.62,-72.51 364.4,-58.29 145,-30 133.82,-28.56 121.79,-26.58 110.64,-24.56"/>
<polygon fill="#63b8ff" stroke="#63b8ff" points="740.31,-81.17 750.45,-78.12 740.62,-74.17 740.31,-81.17"/>
</a>
</g>
</g>
<!-- Node7&#45;&gt;Node5 -->
<g id="edge20_Node000007_Node000005" class="edge">
<title>Node7&#45;&gt;Node5</title>
<g id="a_edge20_Node000007_Node000005"><a xlink:title=" ">
<path fill="none" stroke="#63b8ff" d="M740.22,-79.09C638.45,-76.53 416.23,-66.82 233,-30 226.24,-28.64 219.06,-26.62 212.5,-24.52"/>
<polygon fill="#63b8ff" stroke="#63b8ff" points="740.19,-82.59 750.27,-79.33 740.36,-75.59 740.19,-82.59"/>
</a>
</g>
</g>
<!-- Node8 -->
<g id="Node000008" class="node">
<title>Node8</title>
<g id="a_Node000008"><a xlink:href="atmega2560_2ktos__bsp_8c.html" target="_top" xlink:title="KTOS Board Support Package — ATmega2560 (AVR 8&#45;bit)">
<polygon fill="white" stroke="#666666" points="1190,-30 1068,-30 1068,0 1190,0 1190,-30"/>
<text text-anchor="start" x="1076" y="-18" font-family="Helvetica,sans-Serif" font-size="10.00">bsp/atmega2560/ktos</text>
<text text-anchor="middle" x="1129" y="-7" font-family="Helvetica,sans-Serif" font-size="10.00">_bsp.c</text>
</a>
</g>
</g>
<!-- Node7&#45;&gt;Node8 -->
<g id="edge7_Node000007_Node000008" class="edge">
<title>Node7&#45;&gt;Node8</title>
<g id="a_edge7_Node000007_Node000008"><a xlink:title=" ">
<path fill="none" stroke="#63b8ff" d="M837.63,-69.04C842.13,-67.96 846.65,-66.93 851,-66 942.75,-46.41 966.77,-47.2 1059,-30 1061.92,-29.45 1064.91,-28.89 1067.93,-28.31"/>
<polygon fill="#63b8ff" stroke="#63b8ff" points="836.77,-65.65 827.89,-71.43 838.44,-72.45 836.77,-65.65"/>
</a>
</g>
</g>
<!-- Node9 -->
<g id="Node000009" class="node">
<title>Node9</title>
<g id="a_Node000009"><a xlink:href="atmega328p_2ktos__bsp_8c.html" target="_top" xlink:title="KTOS Board Support Package — ATmega328P (AVR 8&#45;bit)">
<polygon fill="white" stroke="#666666" points="1330,-30 1208,-30 1208,0 1330,0 1330,-30"/>
<text text-anchor="start" x="1216" y="-18" font-family="Helvetica,sans-Serif" font-size="10.00">bsp/atmega328p/ktos</text>
<text text-anchor="middle" x="1269" y="-7" font-family="Helvetica,sans-Serif" font-size="10.00">_bsp.c</text>
</a>
</g>
</g>
<!-- Node7&#45;&gt;Node9 -->
<g id="edge8_Node000007_Node000009" class="edge">
<title>Node7&#45;&gt;Node9</title>
<g id="a_edge8_Node000007_Node000009"><a xlink:title=" ">
<path fill="none" stroke="#63b8ff" d="M836.14,-69.06C841.12,-67.92 846.16,-66.86 851,-66 1004.09,-38.75 1045.26,-53.27 1199,-30 1201.94,-29.55 1204.95,-29.07 1207.98,-28.56"/>
<polygon fill="#63b8ff" stroke="#63b8ff" points="834.98,-65.74 826.09,-71.5 836.63,-72.55 834.98,-65.74"/>
</a>
</g>
</g>
<!-- Node10 -->
<g id="Node000010" class="node">
<title>Node10</title>
<g id="a_Node000010"><a xlink:href="atmega32u4_2ktos__bsp_8c.html" target="_top" xlink:title="KTOS Board Support Package — ATmega32U4 (AVR 8&#45;bit)">
<polygon fill="white" stroke="#666666" points="1470,-30 1348,-30 1348,0 1470,0 1470,-30"/>
<text text-anchor="start" x="1356" y="-18" font-family="Helvetica,sans-Serif" font-size="10.00">bsp/atmega32u4/ktos</text>
<text text-anchor="middle" x="1409" y="-7" font-family="Helvetica,sans-Serif" font-size="10.00">_bsp.c</text>
</a>
</g>
</g>
<!-- Node7&#45;&gt;Node10 -->
<g id="edge9_Node000007_Node000010" class="edge">
<title>Node7&#45;&gt;Node10</title>
<g id="a_edge9_Node000007_Node000010"><a xlink:title=" ">
<path fill="none" stroke="#63b8ff" d="M835.36,-69.09C840.59,-67.91 845.9,-66.83 851,-66 1065.65,-31.04 1123.52,-59.38 1339,-30 1341.95,-29.6 1344.96,-29.15 1347.99,-28.66"/>
<polygon fill="#63b8ff" stroke="#63b8ff" points="834.38,-65.73 825.49,-71.48 836.03,-72.53 834.38,-65.73"/>
</a>
</g>
</g>
<!-- Node11 -->
<g id="Node000011" class="node">
<title>Node11</title>
<g id="a_Node000011"><a xlink:href="attiny85_2ktos__bsp_8c.html" target="_top" xlink:title="KTOS Board Support Package — ATtiny85 (AVR 8&#45;bit)">
<polygon fill="white" stroke="#666666" points="1620,-24.5 1488,-24.5 1488,-5.5 1620,-5.5 1620,-24.5"/>
<text text-anchor="middle" x="1554" y="-12.5" font-family="Helvetica,sans-Serif" font-size="10.00">bsp/attiny85/ktos_bsp.c</text>
</a>
</g>
</g>
<!-- Node7&#45;&gt;Node11 -->
<g id="edge10_Node000007_Node000011" class="edge">
<title>Node7&#45;&gt;Node11</title>
<g id="a_edge10_Node000007_Node000011"><a xlink:title=" ">
<path fill="none" stroke="#63b8ff" d="M835.16,-69.06C840.45,-67.87 845.84,-66.8 851,-66 1127.29,-23.32 1201.47,-63.72 1479,-30 1490.31,-28.63 1502.48,-26.6 1513.67,-24.5"/>
<polygon fill="#63b8ff" stroke="#63b8ff" points="834.09,-65.72 825.18,-71.46 835.73,-72.52 834.09,-65.72"/>
</a>
</g>
</g>
<!-- Node12 -->
<g id="Node000012" class="node">
<title>Node12</title>
<g id="a_Node000012"><a xlink:href="esp8266_2ktos__bsp_8c.html" target="_top" xlink:title="KTOS Board Support Package — ESP8266 (Xtensa LX106) — partial.">
<polygon fill="white" stroke="#666666" points="1771.5,-24.5 1638.5,-24.5 1638.5,-5.5 1771.5,-5.5 1771.5,-24.5"/>
<text text-anchor="middle" x="1705" y="-12.5" font-family="Helvetica,sans-Serif" font-size="10.00">bsp/esp8266/ktos_bsp.c</text>
</a>
</g>
</g>
<!-- Node7&#45;&gt;Node12 -->
<g id="edge11_Node000007_Node000012" class="edge">
<title>Node7&#45;&gt;Node12</title>
<g id="a_edge11_Node000007_Node000012"><a xlink:title=" ">
<path fill="none" stroke="#63b8ff" d="M834.97,-69.04C840.32,-67.84 845.77,-66.78 851,-66 1193.38,-15.04 1285.11,-69.45 1629,-30 1640.6,-28.67 1653.09,-26.63 1664.53,-24.51"/>
<polygon fill="#63b8ff" stroke="#63b8ff" points="833.79,-65.73 824.89,-71.47 835.43,-72.53 833.79,-65.73"/>
</a>
</g>
</g>
<!-- Node13 -->
<g id="Node000013" class="node">
<title>Node13</title>
<g id="a_Node000013"><a xlink:href="msp430g2553_2ktos__bsp_8c.html" target="_top" xlink:title="KTOS Board Support Package — MSP430G2553 (MSP430 16&#45;bit)">
<polygon fill="white" stroke="#666666" points="1920,-30 1790,-30 1790,0 1920,0 1920,-30"/>
<text text-anchor="start" x="1798" y="-18" font-family="Helvetica,sans-Serif" font-size="10.00">bsp/msp430g2553/ktos</text>
<text text-anchor="middle" x="1855" y="-7" font-family="Helvetica,sans-Serif" font-size="10.00">_bsp.c</text>
</a>
</g>
</g>
<!-- Node7&#45;&gt;Node13 -->
<g id="edge12_Node000007_Node000013" class="edge">
<title>Node7&#45;&gt;Node13</title>
<g id="a_edge12_Node000007_Node000013"><a xlink:title=" ">
<path fill="none" stroke="#63b8ff" d="M834.97,-69.01C840.32,-67.81 845.77,-66.76 851,-66 1260.36,-6.65 1369.99,-76.57 1781,-30 1783.86,-29.68 1786.77,-29.3 1789.71,-28.9"/>
<polygon fill="#63b8ff" stroke="#63b8ff" points="833.79,-65.69 824.88,-71.43 835.43,-72.5 833.79,-65.69"/>
</a>
</g>
</g>
<!-- Node14 -->
<g id="Node000014" class="node">
<title>Node14</title>
<g id="a_Node000014"><a xlink:href="pic18f_2ktos__bsp_8c.html" target="_top" xlink:title="KTOS Board Support Package — PIC18F4550 (PIC18 8&#45;bit) [Experimental].">
<polygon fill="white" stroke="#666666" points="364,-24.5 242,-24.5 242,-5.5 364,-5.5 364,-24.5"/>
<text text-anchor="middle" x="303" y="-12.5" font-family="Helvetica,sans-Serif" font-size="10.00">bsp/pic18f/ktos_bsp.c</text>
</a>
</g>
</g>
<!-- Node7&#45;&gt;Node14 -->
<g id="edge13_Node000007_Node000014" class="edge">
<title>Node7&#45;&gt;Node14</title>
<g id="a_edge13_Node000007_Node000014"><a xlink:title=" ">
<path fill="none" stroke="#63b8ff" d="M740.28,-74.77C659.36,-66.87 504.69,-50.6 374,-30 364.07,-28.44 353.41,-26.48 343.45,-24.53"/>
<polygon fill="#63b8ff" stroke="#63b8ff" points="739.96,-78.26 750.26,-75.74 740.64,-71.29 739.96,-78.26"/>
</a>
</g>
</g>
<!-- Node15 -->
<g id="Node000015" class="node">
<title>Node15</title>
<g id="a_Node000015"><a xlink:href="sam3x8e_2ktos__bsp_8c.html" target="_top" xlink:title="KTOS Board Support Package — Atmel SAM3X8E (ARM Cortex&#45;M3)">
<polygon fill="white" stroke="#666666" points="519.5,-24.5 382.5,-24.5 382.5,-5.5 519.5,-5.5 519.5,-24.5"/>
<text text-anchor="middle" x="451" y="-12.5" font-family="Helvetica,sans-Serif" font-size="10.00">bsp/sam3x8e/ktos_bsp.c</text>
</a>
</g>
</g>
<!-- Node7&#45;&gt;Node15 -->
<g id="edge14_Node000007_Node000015" class="edge">
<title>Node7&#45;&gt;Node15</title>
<g id="a_edge14_Node000007_Node000015"><a xlink:title=" ">
<path fill="none" stroke="#63b8ff" d="M740.14,-69.64C672.51,-57.09 559.87,-36.2 497,-24.53"/>
<polygon fill="#63b8ff" stroke="#63b8ff" points="739.72,-73.12 750.19,-71.5 740.99,-66.24 739.72,-73.12"/>
</a>
</g>
</g>
<!-- Node16 -->
<g id="Node000016" class="node">
<title>Node16</title>
<g id="a_Node000016"><a xlink:href="samd21g18_2ktos__bsp_8c.html" target="_top" xlink:title="KTOS Board Support Package — Atmel ATSAMD21G18 (ARM Cortex&#45;M0+)">
<polygon fill="white" stroke="#666666" points="656,-30 538,-30 538,0 656,0 656,-30"/>
<text text-anchor="start" x="546" y="-18" font-family="Helvetica,sans-Serif" font-size="10.00">bsp/samd21g18/ktos</text>
<text text-anchor="middle" x="597" y="-7" font-family="Helvetica,sans-Serif" font-size="10.00">_bsp.c</text>
</a>
</g>
</g>
<!-- Node7&#45;&gt;Node16 -->
<g id="edge15_Node000007_Node000016" class="edge">
<title>Node7&#45;&gt;Node16</title>
<g id="a_edge15_Node000007_Node000016"><a xlink:title=" ">
<path fill="none" stroke="#63b8ff" d="M759.33,-68.21C725.89,-57.45 676.42,-41.54 640.89,-30.12"/>
<polygon fill="#63b8ff" stroke="#63b8ff" points="758.57,-71.64 769.16,-71.37 760.71,-64.98 758.57,-71.64"/>
</a>
</g>
</g>
<!-- Node17 -->
<g id="Node000017" class="node">
<title>Node17</title>
<g id="a_Node000017"><a xlink:href="stm32f030_2ktos__bsp_8c.html" target="_top" xlink:title="KTOS Board Support Package — STM32F030 (ARM Cortex&#45;M0)">
<polygon fill="white" stroke="#666666" points="787.5,-30 674.5,-30 674.5,0 787.5,0 787.5,-30"/>
<text text-anchor="start" x="682.5" y="-18" font-family="Helvetica,sans-Serif" font-size="10.00">bsp/stm32f030/ktos</text>
<text text-anchor="middle" x="731" y="-7" font-family="Helvetica,sans-Serif" font-size="10.00">_bsp.c</text>
</a>
</g>
</g>
<!-- Node7&#45;&gt;Node17 -->
<g id="edge16_Node000007_Node000017" class="edge">
<title>Node7&#45;&gt;Node17</title>
<g id="a_edge16_Node000007_Node000017"><a xlink:title=" ">
<path fill="none" stroke="#63b8ff" d="M779.91,-64.16C769.4,-53.81 755.78,-40.4 745.58,-30.36"/>
<polygon fill="#63b8ff" stroke="#63b8ff" points="777.65,-66.85 787.23,-71.37 782.56,-61.86 777.65,-66.85"/>
</a>
</g>
</g>
<!-- Node18 -->
<g id="Node000018" class="node">
<title>Node18</title>
<g id="a_Node000018"><a xlink:href="stm32f103_2ktos__bsp_8c.html" target="_top" xlink:title="KTOS Board Support Package — STM32F103 (ARM Cortex&#45;M3)">
<polygon fill="white" stroke="#666666" points="918.5,-30 805.5,-30 805.5,0 918.5,0 918.5,-30"/>
<text text-anchor="start" x="813.5" y="-18" font-family="Helvetica,sans-Serif" font-size="10.00">bsp/stm32f103/ktos</text>
<text text-anchor="middle" x="862" y="-7" font-family="Helvetica,sans-Serif" font-size="10.00">_bsp.c</text>
</a>
</g>
</g>
<!-- Node7&#45;&gt;Node18 -->
<g id="edge17_Node000007_Node000018" class="edge">
<title>Node7&#45;&gt;Node18</title>
<g id="a_edge17_Node000007_Node000018"><a xlink:title=" ">
<path fill="none" stroke="#63b8ff" d="M812.39,-64.1C823.15,-53.68 837.08,-40.16 847.44,-30.12"/>
<polygon fill="#63b8ff" stroke="#63b8ff" points="809.64,-61.89 804.9,-71.37 814.52,-66.92 809.64,-61.89"/>
</a>
</g>
</g>
<!-- Node19 -->
<g id="Node000019" class="node">
<title>Node19</title>
<g id="a_Node000019"><a xlink:href="stm32l031_2ktos__bsp_8c.html" target="_top" xlink:title="KTOS Board Support Package — STM32L031 (ARM Cortex&#45;M0+)">
<polygon fill="white" stroke="#666666" points="1049.5,-30 936.5,-30 936.5,0 1049.5,0 1049.5,-30"/>
<text text-anchor="start" x="944.5" y="-18" font-family="Helvetica,sans-Serif" font-size="10.00">bsp/stm32l031/ktos</text>
<text text-anchor="middle" x="993" y="-7" font-family="Helvetica,sans-Serif" font-size="10.00">_bsp.c</text>
</a>
</g>
</g>
<!-- Node7&#45;&gt;Node19 -->
<g id="edge18_Node000007_Node000019" class="edge">
<title>Node7&#45;&gt;Node19</title>
<g id="a_edge18_Node000007_Node000019"><a xlink:title=" ">
<path fill="none" stroke="#63b8ff" d="M832.3,-68.21C865.41,-57.45 914.38,-41.54 949.55,-30.12"/>
<polygon fill="#63b8ff" stroke="#63b8ff" points="831,-64.95 822.57,-71.37 833.16,-71.61 831,-64.95"/>
</a>
</g>
</g>
</g>
</svg>
