<?xml version="1.0" encoding="UTF-8" standalone="no"?>
<!DOCTYPE svg PUBLIC "-//W3C//DTD SVG 1.1//EN"
 "http://www.w3.org/Graphics/SVG/1.1/DTD/svg11.dtd">
<!-- Generated by graphviz version 2.43.0 (0)
 -->
<!-- Title: core/ktos_hal.h Pages: 1 -->
<svg width="1637pt" height="93pt"
 viewBox="0.00 0.00 1637.00 93.00" xmlns="http://www.w3.org/2000/svg" xmlns:xlink="http://www.w3.org/1999/xlink">
<g id="graph0" class="graph" transform="scale(1 1) rotate(0) translate(4 89)">
<title>core/ktos_hal.h</title>
<!-- Node1 -->
<g id="Node000001" class="node">
<title>Node1</title>
<g id="a_Node000001"><a xlink:title="KTOS Hardware Abstraction Layer (HAL) interface.">
<polygon fill="#999999" stroke="#666666" points="904.5,-85 813.5,-85 813.5,-66 904.5,-66 904.5,-85"/>
<text text-anchor="middle" x="859" y="-73" font-family="Helvetica,sans-Serif" font-size="10.00">core/ktos_hal.h</text>
</a>
</g>
</g>
<!-- Node2 -->
<g id="Node000002" class="node">
<title>Node2</title>
<g id="a_Node000002"><a xlink:href="atmega2560_2ktos__bsp_8c.html" target="_top" xlink:title="KTOS Board Support Package — ATmega2560 (AVR 8&#45;bit)">
<polygon fill="white" stroke="#666666" points="122,-30 0,-30 0,0 122,0 122,-30"/>
<text text-anchor="start" x="8" y="-18" font-family="Helvetica,sans-Serif" font-size="10.00">bsp/atmega2560/ktos</text>
<text text-anchor="middle" x="61" y="-7" font-family="Helvetica,sans-Serif" font-size="10.00">_bsp.c</text>
</a>
</g>
</g>
<!-- Node1&#45;&gt;Node2 -->
<g id="edge1_Node000001_Node000002" class="edge">
<title>Node1&#45;&gt;Node2</title>
<g id="a_edge1_Node000001_Node000002"><a xlink:title=" ">
<path fill="none" stroke="#63b8ff" d="M802.98,-73.67C680.56,-71.3 380.21,-62.38 131,-30 128.05,-29.62 125.04,-29.18 122,-28.71"/>
<polygon fill="#63b8ff" stroke="#63b8ff" points="803.16,-77.18 813.22,-73.87 803.29,-70.18 803.16,-77.18"/>
</a>
</g>
</g>
<!-- Node3 -->
<g id="Node000003" class="node">
<title>Node3</title>
<g id="a_Node000003"><a xlink:href="atmega328p_2ktos__bsp_8c.html" target="_top" xlink:title="KTOS Board Support Package — ATmega328P (AVR 8&#45;bit)">
<polygon fill="white" stroke="#666666" points="262,-30 140,-30 140,0 262,0 262,-30"/>
<text text-anchor="start" x="148" y="-18" font-family="Helvetica,sans-Serif" font-size="10.00">bsp/atmega328p/ktos</text>
<text text-anchor="middle" x="201" y="-7" font-family="Helvetica,sans-Serif" font-size="10.00">_bsp.c</text>
</a>
</g>
</g>
<!-- Node1&#45;&gt;Node3 -->
<g id="edge2_Node000001_Node000003" class="edge">
<title>Node1&#45;&gt;Node3</title>
<g id="a_edge2_Node000001_Node000003"><a xlink:title=" ">
<path fill="none" stroke="#63b8ff" d="M803.41,-72.55C698.78,-68.38 465.59,-56.72 271,-30 268.05,-29.6 265.04,-29.14 262.01,-28.66"/>
<polygon fill="#63b8ff" stroke="#63b8ff" points="803.3,-76.05 813.43,-72.94 803.57,-69.06 803.3,-76.05"/>
</a>
</g>
</g>
<!-- Node4 -->
<g id="Node000004" class="node">
<title>Node4</title>
<g id="a_Node000004"><a xlink:href="atmega32u4_2ktos__bsp_8c.html" target="_top" xlink:title="KTOS Board Support Package — ATmega32U4 (AVR 8&#45;bit)">
<polygon fill="white" stroke="#666666" points="402,-30 280,-30 280,0 402,0 402,-30"/>
<text text-anchor="start" x="288" y="-18" font-family="Helvetica,sans-Serif" font-size="10.00">bsp/atmega32u4/ktos</text>
<text text-anchor="middle" x="341" y="-7" font-family="Helvetica,sans-Serif" font-size="10.00">_bsp.c</text>
</a>
</g>
</g>
<!-- Node1&#45;&gt;Node4 -->
<g id="edge3_Node000001_Node000004" class="edge">
<title>Node1&#45;&gt;Node4</title>
<g id="a_edge3_Node000001_Node000004"><a xlink:title=" ">
<path fill="none" stroke="#63b8ff" d="M803.15,-70.73C718.17,-64.59 551.44,-50.97 411,-30 408.06,-29.56 405.05,-29.08 402.02,-28.57"/>
<polygon fill="#63b8ff" stroke="#63b8ff" points="803.12,-74.23 813.35,-71.46 803.62,-67.25 803.12,-74.23"/>
</a>
</g>
</g>
<!-- Node5 -->
<g id="Node000005" class="node">
<title>Node5</title>
<g id="a_Node000005"><a xlink:href="attiny85_2ktos__bsp_8c.html" target="_top" xlink:title="KTOS Board Support Package — ATtiny85 (AVR 8&#45;bit)">
<polygon fill="white" stroke="#666666" points="552,-24.5 420,-24.5 420,-5.5 552,-5.5 552,-24.5"/>
<text text-anchor="middle" x="486" y="-12.5" font-family="Helvetica,sans-Serif" font-size="10.00">bsp/attiny85/ktos_bsp.c</text>
</a>
</g>
</g>
<!-- Node1&#45;&gt;Node5 -->
<g id="edge4_Node000001_Node000005" class="edge">
<title>Node1&#45;&gt;Node5</title>
<g id="a_edge4_Node000001_Node000005"><a xlink:title=" ">
<path fill="none" stroke="#63b8ff" d="M803.48,-66.82C743.55,-58.39 645.37,-44.17 561,-30 551.07,-28.33 540.43,-26.42 530.37,-24.56"/>
<polygon fill="#63b8ff" stroke="#63b8ff" points="803.09,-70.3 813.48,-68.23 804.06,-63.37 803.09,-70.3"/>
</a>
</g>
</g>
<!-- Node6 -->
<g id="Node000006" class="node">
<title>Node6</title>
<g id="a_Node000006"><a xlink:href="esp8266_2ktos__bsp_8c.html" target="_top" xlink:title="KTOS Board Support Package — ESP8266 (Xtensa LX106) — partial.">
<polygon fill="white" stroke="#666666" points="703.5,-24.5 570.5,-24.5 570.5,-5.5 703.5,-5.5 703.5,-24.5"/>
<text text-anchor="middle" x="637" y="-12.5" font-family="Helvetica,sans-Serif" font-size="10.00">bsp/esp8266/ktos_bsp.c</text>
</a>
</g>
</g>
<!-- Node1&#45;&gt;Node6 -->
<g id="edge5_Node000001_Node000006" class="edge">
<title>Node1&#45;&gt;Node6</title>
<g id="a_edge5_Node000001_Node000006"><a xlink:title=" ">
<path fill="none" stroke="#63b8ff" d="M816.86,-63.4C773.94,-52.08 708.3,-34.79 669.32,-24.52"/>
<polygon fill="#63b8ff" stroke="#63b8ff" points="816.16,-66.83 826.72,-65.99 817.94,-60.06 816.16,-66.83"/>
</a>
</g>
</g>
<!-- Node7 -->
<g id="Node000007" class="node">
<title>Node7</title>
<g id="a_Node000007"><a xlink:href="msp430g2553_2ktos__bsp_8c.html" target="_top" xlink:title="KTOS Board Support Package — MSP430G2553 (MSP430 16&#45;bit)">
<polygon fill="white" stroke="#666666" points="852,-30 722,-30 722,0 852,0 852,-30"/>
<text text-anchor="start" x="730" y="-18" font-family="Helvetica,sans-Serif" font-size="10.00">bsp/msp430g2553/ktos</text>
<text text-anchor="middle" x="787" y="-7" font-family="Helvetica,sans-Serif" font-size="10.00">_bsp.c</text>
</a>
</g>
</g>
<!-- Node1&#45;&gt;Node7 -->
<g id="edge6_Node000001_Node000007" class="edge">
<title>Node1&#45;&gt;Node7</title>
<g id="a_edge6_Node000001_Node000007"><a xlink:title=" ">
<path fill="none" stroke="#63b8ff" d="M840.54,-59.5C829.4,-50.45 815.31,-39 804.37,-30.11"/>
<polygon fill="#63b8ff" stroke="#63b8ff" points="838.41,-62.28 848.38,-65.87 842.82,-56.85 838.41,-62.28"/>
</a>
</g>
</g>
<!-- Node8 -->
<g id="Node000008" class="node">
<title>Node8</title>
<g id="a_Node000008"><a xlink:href="pic18f_2ktos__bsp_8c.html" target="_top" xlink:title="KTOS Board Support Package — PIC18F4550 (PIC18 8&#45;bit) [Experimental].">
<polygon fill="white" stroke="#666666" points="992,-24.5 870,-24.5 870,-5.5 992,-5.5 992,-24.5"/>
<text text-anchor="middle" x="931" y="-12.5" font-family="Helvetica,sans-Serif" font-size="10.00">bsp/pic18f/ktos_bsp.c</text>
</a>
</g>
</g>
<!-- Node1&#45;&gt;Node8 -->
<g id="edge7_Node000001_Node000008" class="edge">
<title>Node1&#45;&gt;Node8</title>
<g id="a_edge7_Node000001_Node000008"><a xlink:title=" ">
<path fill="none" stroke="#63b8ff" d="M877.42,-59.54C891.01,-48.49 909.04,-33.84 920.33,-24.67"/>
<polygon fill="#63b8ff" stroke="#63b8ff" points="875.18,-56.85 869.62,-65.87 879.59,-62.28 875.18,-56.85"/>
</a>
</g>
</g>
<!-- Node9 -->
<g id="Node000009" class="node">
<title>Node9</title>
<g id="a_Node000009"><a xlink:href="sam3x8e_2ktos__bsp_8c.html" target="_top" xlink:title="KTOS Board Support Package — Atmel SAM3X8E (ARM Cortex&#45;M3)">
<polygon fill="white" stroke="#666666" points="1147.5,-24.5 1010.5,-24.5 1010.5,-5.5 1147.5,-5.5 1147.5,-24.5"/>
<text text-anchor="middle" x="1079" y="-12.5" font-family="Helvetica,sans-Serif" font-size="10.00">bsp/sam3x8e/ktos_bsp.c</text>
</a>
</g>
</g>
<!-- Node1&#45;&gt;Node9 -->
<g id="edge8_Node000001_Node000009" class="edge">
<title>Node1&#45;&gt;Node9</title>
<g id="a_edge8_Node000001_Node000009"><a xlink:title=" ">
<path fill="none" stroke="#63b8ff" d="M900.76,-63.4C943.3,-52.08 1008.34,-34.79 1046.97,-24.52"/>
<polygon fill="#63b8ff" stroke="#63b8ff" points="899.75,-60.04 890.99,-65.99 901.55,-66.81 899.75,-60.04"/>
</a>
</g>
</g>
<!-- Node10 -->
<g id="Node000010" class="node">
<title>Node10</title>
<g id="a_Node000010"><a xlink:href="stm32f030_2ktos__bsp_8c.html" target="_top" xlink:title="KTOS Board Support Package — STM32F030 (ARM Cortex&#45;M0)">
<polygon fill="white" stroke="#666666" points="1278.5,-30 1165.5,-30 1165.5,0 1278.5,0 1278.5,-30"/>
<text text-anchor="start" x="1173.5" y="-18" font-family="Helvetica,sans-Serif" font-size="10.00">bsp/stm32f030/ktos</text>
<text text-anchor="middle" x="1222" y="-7" font-family="Helvetica,sans-Serif" font-size="10.00">_bsp.c</text>
</a>
</g>
</g>
<!-- Node1&#45;&gt;Node10 -->
<g id="edge9_Node000001_Node000010" class="edge">
<title>Node1&#45;&gt;Node10</title>
<g id="a_edge9_Node000001_Node000010"><a xlink:title=" ">
<path fill="none" stroke="#63b8ff" d="M914.6,-67.28C974.59,-59.23 1072.84,-45.33 1157,-30 1159.73,-29.5 1162.51,-28.98 1165.32,-28.43"/>
<polygon fill="#63b8ff" stroke="#63b8ff" points="914.04,-63.82 904.59,-68.61 914.96,-70.76 914.04,-63.82"/>
</a>
</g>
</g>
<!-- Node11 -->
<g id="Node000011" class="node">
<title>Node11</title>
<g id="a_Node000011"><a xlink:href="stm32f103_2ktos__bsp_8c.html" target="_top" xlink:title="KTOS Board Support Package — STM32F103 (ARM Cortex&#45;M3)">
<polygon fill="white" stroke="#666666" points="1409.5,-30 1296.5,-30 1296.5,0 1409.5,0 1409.5,-30"/>
<text text-anchor="start" x="1304.5" y="-18" font-family="Helvetica,sans-Serif" font-size="10.00">bsp/stm32f103/ktos</text>
<text text-anchor="middle" x="1353" y="-7" font-family="Helvetica,sans-Serif" font-size="10.00">_bsp.c</text>
</a>
</g>
</g>
<!-- Node1&#45;&gt;Node11 -->
<g id="edge10_Node000001_Node000011" class="edge">
<title>Node1&#45;&gt;Node11</title>
<g id="a_edge10_Node000001_Node000011"><a xlink:title=" ">
<path fill="none" stroke="#63b8ff" d="M914.72,-70.67C996.79,-64.58 1154.86,-51.18 1288,-30 1290.74,-29.56 1293.53,-29.09 1296.35,-28.58"/>
<polygon fill="#63b8ff" stroke="#63b8ff" points="914.33,-67.19 904.61,-71.41 914.84,-74.17 914.33,-67.19"/>
</a>
</g>
</g>
<!-- Node12 -->
<g id="Node000012" class="node">
<title>Node12</title>
<g id="a_Node000012"><a xlink:href="stm32l031_2ktos__bsp_8c.html" target="_top" xlink:title="KTOS Board Support Package — STM32L031 (ARM Cortex&#45;M0+)">
<polygon fill="white" stroke="#666666" points="1540.5,-30 1427.5,-30 1427.5,0 1540.5,0 1540.5,-30"/>
<text text-anchor="start" x="1435.5" y="-18" font-family="Helvetica,sans-Serif" font-size="10.00">bsp/stm32l031/ktos</text>
<text text-anchor="middle" x="1484" y="-7" font-family="Helvetica,sans-Serif" font-size="10.00">_bsp.c</text>
</a>
</g>
</g>
<!-- Node1&#45;&gt;Node12 -->
<g id="edge11_Node000001_Node000012" class="edge">
<title>Node1&#45;&gt;Node12</title>
<g id="a_edge11_Node000001_Node000012"><a xlink:title=" ">
<path fill="none" stroke="#63b8ff" d="M914.87,-72.52C1015.94,-68.39 1235.64,-56.91 1419,-30 1421.74,-29.6 1424.54,-29.15 1427.36,-28.66"/>
<polygon fill="#63b8ff" stroke="#63b8ff" points="914.45,-69.03 904.6,-72.93 914.73,-76.03 914.45,-69.03"/>
</a>
</g>
</g>
<!-- Node13 -->
<g id="Node000013" class="node">
<title>Node13</title>
<g id="a_Node000013"><a xlink:href="ktos_8c.html" target="_top" xlink:title="KTOS cooperative scheduler implementation.">
<polygon fill="white" stroke="#666666" points="1629,-24.5 1559,-24.5 1559,-5.5 1629,-5.5 1629,-24.5"/>
<text text-anchor="middle" x="1594" y="-12.5" font-family="Helvetica,sans-Serif" font-size="10.00">core/ktos.c</text>
</a>
</g>
</g>
<!-- Node1&#45;&gt;Node13 -->
<g id="edge12_Node000001_Node000013" class="edge">
<title>Node1&#45;&gt;Node13</title>
<g id="a_edge12_Node000001_Node000013"><a xlink:title=" ">
<path fill="none" stroke="#63b8ff" d="M915.18,-72.65C1057.34,-67.68 1428.7,-52.85 1550,-30 1556.77,-28.72 1563.96,-26.73 1570.52,-24.63"/>
<polygon fill="#63b8ff" stroke="#63b8ff" points="914.82,-69.16 904.94,-73 915.06,-76.15 914.82,-69.16"/>
</a>
</g>
</g>
</g>
</svg>
