<?xml version="1.0" encoding="UTF-8" standalone="no"?>
<!DOCTYPE svg PUBLIC "-//W3C//DTD SVG 1.1//EN"
 "http://www.w3.org/Graphics/SVG/1.1/DTD/svg11.dtd">
<!-- Generated by graphviz version 2.43.0 (0)
 -->
<!-- Title: bsp/nrf52840/ktos_bsp.c Pages: 1 -->
<svg width="217pt" height="192pt"
 viewBox="0.00 0.00 216.50 192.00" xmlns="http://www.w3.org/2000/svg" xmlns:xlink="http://www.w3.org/1999/xlink">
<g id="graph0" class="graph" transform="scale(1 1) rotate(0) translate(4 188)">
<title>bsp/nrf52840/ktos_bsp.c</title>
<!-- Node1 -->
<g id="Node000001" class="node">
<title>Node1</title>
<g id="a_Node000001"><a xlink:title=" ">
<polygon fill="#999999" stroke="#666666" points="148,-184 13,-184 13,-165 148,-165 148,-184"/>
<text text-anchor="middle" x="80.5" y="-172" font-family="Helvetica,sans-Serif" font-size="10.00">bsp/nrf52840/ktos_bsp.c</text>
</a>
</g>
</g>
<!-- Node2 -->
<g id="Node000002" class="node">
<title>Node2</title>
<g id="a_Node000002"><a xlink:title=" ">
<polygon fill="#e0e0e0" stroke="#999999" points="53,-19 0,-19 0,0 53,0 53,-19"/>
<text text-anchor="middle" x="26.5" y="-7" font-family="Helvetica,sans-Serif" font-size="10.00">stdint.h</text>
</a>
</g>
</g>
<!-- Node1&#45;&gt;Node2 -->
<g id="edge1_Node000001_Node000002" class="edge">
<title>Node1&#45;&gt;Node2</title>
<g id="a_edge1_Node000001_Node000002"><a xlink:title=" ">
<path fill="none" stroke="#63b8ff" d="M71.18,-164.93C62.76,-156.61 50.76,-143.18 44.5,-129 29.99,-96.11 26.87,-53.66 26.37,-29.52"/>
<polygon fill="#63b8ff" stroke="#63b8ff" points="29.87,-29.24 26.3,-19.26 22.87,-29.28 29.87,-29.24"/>
</a>
</g>
</g>
<!-- Node3 -->
<g id="Node000003" class="node">
<title>Node3</title>
<g id="a_Node000003"><a xlink:title=" ">
<polygon fill="#e0e0e0" stroke="#999999" points="107,-129 54,-129 54,-110 107,-110 107,-129"/>
<text text-anchor="middle" x="80.5" y="-117" font-family="Helvetica,sans-Serif" font-size="10.00">string.h</text>
</a>
</g>
</g>
<!-- Node1&#45;&gt;Node3 -->
<g id="edge2_Node000001_Node000003" class="edge">
<title>Node1&#45;&gt;Node3</title>
<g id="a_edge2_Node000001_Node000003"><a xlink:title=" ">
<path fill="none" stroke="#63b8ff" d="M80.5,-164.75C80.5,-157.8 80.5,-147.85 80.5,-139.13"/>
<polygon fill="#63b8ff" stroke="#63b8ff" points="84,-139.09 80.5,-129.09 77,-139.09 84,-139.09"/>
</a>
</g>
</g>
<!-- Node4 -->
<g id="Node000004" class="node">
<title>Node4</title>
<g id="a_Node000004"><a xlink:href="ktos_8h.html" target="_top" xlink:title="KTOS public API — include this in your application code.">
<polygon fill="white" stroke="#666666" points="172,-129 125,-129 125,-110 172,-110 172,-129"/>
<text text-anchor="middle" x="148.5" y="-117" font-family="Helvetica,sans-Serif" font-size="10.00">ktos.h</text>
</a>
</g>
</g>
<!-- Node1&#45;&gt;Node4 -->
<g id="edge3_Node000001_Node000004" class="edge">
<title>Node1&#45;&gt;Node4</title>
<g id="a_edge3_Node000001_Node000004"><a xlink:title=" ">
<path fill="none" stroke="#63b8ff" d="M91.43,-164.98C101.58,-157.07 116.92,-145.11 129.15,-135.58"/>
<polygon fill="#63b8ff" stroke="#63b8ff" points="131.64,-138.08 137.38,-129.17 127.34,-132.56 131.64,-138.08"/>
</a>
</g>
</g>
<!-- Node5 -->
<g id="Node000005" class="node">
<title>Node5</title>
<g id="a_Node000005"><a xlink:title=" ">
<polygon fill="#e0e0e0" stroke="#999999" points="208.5,-19 146.5,-19 146.5,0 208.5,0 208.5,-19"/>
<text text-anchor="middle" x="177.5" y="-7" font-family="Helvetica,sans-Serif" font-size="10.00">stdbool.h</text>
</a>
</g>
</g>
<!-- Node4&#45;&gt;Node5 -->
<g id="edge4_Node000004_Node000005" class="edge">
<title>Node4&#45;&gt;Node5</title>
<g id="a_edge4_Node000004_Node000005"><a xlink:title=" ">
<path fill="none" stroke="#63b8ff" d="M150.87,-109.66C155.59,-92.09 166.24,-52.45 172.54,-28.95"/>
<polygon fill="#63b8ff" stroke="#63b8ff" points="175.96,-29.72 175.18,-19.16 169.2,-27.91 175.96,-29.72"/>
</a>
</g>
</g>
<!-- Node6 -->
<g id="Node000006" class="node">
<title>Node6</title>
<g id="a_Node000006"><a xlink:href="ktos__common_8h.html" target="_top" xlink:title="Portable primitive types, constants, and utility prototypes used throughout the KTOS kernel and all B...">
<polygon fill="white" stroke="#666666" points="149,-74 54,-74 54,-55 149,-55 149,-74"/>
<text text-anchor="middle" x="101.5" y="-62" font-family="Helvetica,sans-Serif" font-size="10.00">ktos_common.h</text>
</a>
</g>
</g>
<!-- Node4&#45;&gt;Node6 -->
<g id="edge5_Node000004_Node000006" class="edge">
<title>Node4&#45;&gt;Node6</title>
<g id="a_edge5_Node000004_Node000006"><a xlink:title=" ">
<path fill="none" stroke="#63b8ff" d="M140.74,-109.75C134.03,-102.18 124.16,-91.05 115.99,-81.84"/>
<polygon fill="#63b8ff" stroke="#63b8ff" points="118.37,-79.25 109.12,-74.09 113.13,-83.89 118.37,-79.25"/>
</a>
</g>
</g>
<!-- Node6&#45;&gt;Node2 -->
<g id="edge6_Node000006_Node000002" class="edge">
<title>Node6&#45;&gt;Node2</title>
<g id="a_edge6_Node000006_Node000002"><a xlink:title=" ">
<path fill="none" stroke="#63b8ff" d="M89.45,-54.98C78.04,-46.92 60.67,-34.65 47.07,-25.03"/>
<polygon fill="#63b8ff" stroke="#63b8ff" points="48.96,-22.08 38.77,-19.17 44.92,-27.8 48.96,-22.08"/>
</a>
</g>
</g>
<!-- Node6&#45;&gt;Node5 -->
<g id="edge8_Node000006_Node000005" class="edge">
<title>Node6&#45;&gt;Node5</title>
<g id="a_edge8_Node000006_Node000005"><a xlink:title=" ">
<path fill="none" stroke="#63b8ff" d="M113.71,-54.98C125.28,-46.92 142.88,-34.65 156.66,-25.03"/>
<polygon fill="#63b8ff" stroke="#63b8ff" points="158.87,-27.76 165.07,-19.17 154.86,-22.02 158.87,-27.76"/>
</a>
</g>
</g>
<!-- Node7 -->
<g id="Node000007" class="node">
<title>Node7</title>
<g id="a_Node000007"><a xlink:title=" ">
<polygon fill="#e0e0e0" stroke="#999999" points="128.5,-19 72.5,-19 72.5,0 128.5,0 128.5,-19"/>
<text text-anchor="middle" x="100.5" y="-7" font-family="Helvetica,sans-Serif" font-size="10.00">stddef.h</text>
</a>
</g>
</g>
<!-- Node6&#45;&gt;Node7 -->
<g id="edge7_Node000006_Node000007" class="edge">
<title>Node6&#45;&gt;Node7</title>
<g id="a_edge7_Node000006_Node000007"><a xlink:title=" ">
<path fill="none" stroke="#63b8ff" d="M101.33,-54.75C101.2,-47.8 101.02,-37.85 100.85,-29.13"/>
<polygon fill="#63b8ff" stroke="#63b8ff" points="104.35,-29.02 100.66,-19.09 97.35,-29.15 104.35,-29.02"/>
</a>
</g>
</g>
</g>
</svg>
