<?xml version="1.0" encoding="UTF-8" standalone="no"?>
<!DOCTYPE svg PUBLIC "-//W3C//DTD SVG 1.1//EN"
 "http://www.w3.org/Graphics/SVG/1.1/DTD/svg11.dtd">
<!-- Generated by graphviz version 2.43.0 (0)
 -->
<!-- Title: Reset_Handler Pages: 1 -->
<!--zoomable 284 -->

<svg id="main" version="1.1" xmlns="http://www.w3.org/2000/svg" xmlns:xlink="http://www.w3.org/1999/xlink" xml:space="preserve" onload="init(evt)">
<style type="text/css"><![CDATA[
.node, .edge {opacity: 0.7;}
.node.selected, .edge.selected {opacity: 1;}
.edge:hover path { stroke: red; }
.edge:hover polygon { stroke: red; fill: red; }
]]></style>

<defs>
  <circle id="rim" cx="0" cy="0" r="7"/>
  <circle id="rim2" cx="0" cy="0" r="3.5"/>
  <g id="zoomPlus">
    <use xlink:href="#rim" fill="#404040"><set attributeName="fill" to="#808080" begin="zoomplus.mouseover" end="zoomplus.mouseout"/></use>
    <path d="M-4,0h8M0,-4v8" fill="none" stroke="white" stroke-width="1.5" pointer-events="none"/>
  </g>
  <g id="zoomMin">
    <use xlink:href="#rim" fill="#404040"><set attributeName="fill" to="#808080" begin="zoomminus.mouseover" end="zoomminus.mouseout"/></use>
    <path d="M-4,0h8" fill="none" stroke="white" stroke-width="1.5" pointer-events="none"/>
  </g>
  <g id="arrowUp" transform="translate(30 24)">
    <use xlink:href="#rim"/>
    <path pointer-events="none" fill="none" stroke="white" stroke-width="1.5" d="M0,-3.0v7 M-2.5,-0.5L0,-3.0L2.5,-0.5"/>
  </g>
  <g id="arrowRight" transform="rotate(90) translate(36 -43)">
    <use xlink:href="#rim"/>
    <path pointer-events="none" fill="none" stroke="white" stroke-width="1.5" d="M0,-3.0v7 M-2.5,-0.5L0,-3.0L2.5,-0.5"/>
  </g>
  <g id="arrowDown" transform="rotate(180) translate(-30 -48)">
    <use xlink:href="#rim"/>
    <path pointer-events="none" fill="none" stroke="white" stroke-width="1.5" d="M0,-3.0v7 M-2.5,-0.5L0,-3.0L2.5,-0.5"/>
  </g>
  <g id="arrowLeft" transform="rotate(270) translate(-36 17)">
    <use xlink:href="#rim"/>
    <path pointer-events="none" fill="none" stroke="white" stroke-width="1.5" d="M0,-3.0v7 M-2.5,-0.5L0,-3.0L2.5,-0.5"/>
  </g>
  <g id="resetDef">
    <use xlink:href="#rim2" fill="#404040"><set attributeName="fill" to="#808080" begin="reset.mouseover" end="reset.mouseout"/></use>
  </g>
</defs>
<script type="application/ecmascript">
var viewWidth = 924;
var viewHeight = 284;
var sectionId = 'dynsection-4';
</script>
<script type="application/ecmascript" xlink:href="svg.min.js"/>
<svg id="graph" class="graph">
<g id="viewport">
<title>Reset_Handler</title>
<!-- Node1 -->
<g id="Node000001" class="node">
<title>Node1</title>
<g id="a_Node000001"><a xlink:title=" ">
<polygon fill="#999999" stroke="#666666" points="88,-158 0,-158 0,-139 88,-139 88,-158"/>
<text text-anchor="middle" x="44" y="-146" font-family="Helvetica,sans-Serif" font-size="10.00">Reset_Handler</text>
</a>
</g>
</g>
<!-- Node2 -->
<g id="Node000002" class="node">
<title>Node2</title>
<g id="a_Node000002"><a xlink:href="startup_8c.html#a0b551273446a40b6642560095f9498a2" target="_top" xlink:title=" ">
<polygon fill="white" stroke="#666666" points="226,-177 124,-177 124,-158 226,-158 226,-177"/>
<text text-anchor="middle" x="175" y="-165" font-family="Helvetica,sans-Serif" font-size="10.00">clock_init_48MHz</text>
</a>
</g>
</g>
<!-- Node1&#45;&gt;Node2 -->
<g id="edge1_Node000001_Node000002" class="edge">
<title>Node1&#45;&gt;Node2</title>
<g id="a_edge1_Node000001_Node000002"><a xlink:title=" ">
<path fill="none" stroke="#63b8ff" d="M88.31,-154.88C96.52,-156.09 105.24,-157.37 113.86,-158.64"/>
<polygon fill="#63b8ff" stroke="#63b8ff" points="113.49,-162.13 123.89,-160.12 114.51,-155.2 113.49,-162.13"/>
</a>
</g>
</g>
<!-- Node3 -->
<g id="Node000003" class="node">
<title>Node3</title>
<g id="a_Node000003"><a xlink:href="ktos__multi_8c.html#ae66f6b31b5ad750f1fe042a706a4e3d4" target="_top" xlink:title=" ">
<polygon fill="white" stroke="#666666" points="195.5,-140 154.5,-140 154.5,-121 195.5,-121 195.5,-140"/>
<text text-anchor="middle" x="175" y="-128" font-family="Helvetica,sans-Serif" font-size="10.00">main</text>
</a>
</g>
</g>
<!-- Node1&#45;&gt;Node3 -->
<g id="edge2_Node000001_Node000003" class="edge">
<title>Node1&#45;&gt;Node3</title>
<g id="a_edge2_Node000001_Node000003"><a xlink:title=" ">
<path fill="none" stroke="#63b8ff" d="M88.31,-142.46C106.69,-139.89 127.64,-136.97 144.23,-134.65"/>
<polygon fill="#63b8ff" stroke="#63b8ff" points="145.01,-138.08 154.43,-133.23 144.04,-131.15 145.01,-138.08"/>
</a>
</g>
</g>
<!-- Node4 -->
<g id="Node000004" class="node">
<title>Node4</title>
<g id="a_Node000004"><a xlink:href="group__ktos__core.html#ga7aca2702c8fa0e02fd05461d4f5d23fe" target="_top" xlink:title="Emit a fatal&#45;error message and halt execution.">
<polygon fill="white" stroke="#666666" points="898,-226 800,-226 800,-207 898,-207 898,-226"/>
<text text-anchor="middle" x="849" y="-214" font-family="Helvetica,sans-Serif" font-size="10.00">ktos_Emergency</text>
</a>
</g>
</g>
<!-- Node3&#45;&gt;Node4 -->
<g id="edge3_Node000003_Node000004" class="edge">
<title>Node3&#45;&gt;Node4</title>
<g id="a_edge3_Node000003_Node000004"><a xlink:title=" ">
<path fill="none" stroke="#63b8ff" d="M195.96,-136.83C205.31,-140.11 216.47,-144.48 226,-149.5 243.23,-158.58 245.14,-164.75 262,-174.5 324.13,-210.43 338.58,-225.27 408,-243.5 553.4,-281.68 598.28,-284.43 746,-256.5 772.34,-251.52 800.59,-239.9 820.67,-230.46"/>
<polygon fill="#63b8ff" stroke="#63b8ff" points="822.34,-233.54 829.82,-226.04 819.3,-227.24 822.34,-233.54"/>
</a>
</g>
</g>
<!-- Node5 -->
<g id="Node000005" class="node">
<title>Node5</title>
<g id="a_Node000005"><a xlink:href="ktos_8c.html#a56286f073d2c35d6eb89a0f60f41e0b8" target="_top" xlink:title=" ">
<polygon fill="white" stroke="#666666" points="520,-205 440,-205 440,-186 520,-186 520,-205"/>
<text text-anchor="middle" x="480" y="-193" font-family="Helvetica,sans-Serif" font-size="10.00">ktos_InitTask</text>
</a>
</g>
</g>
<!-- Node3&#45;&gt;Node5 -->
<g id="edge4_Node000003_Node000005" class="edge">
<title>Node3&#45;&gt;Node5</title>
<g id="a_edge4_Node000003_Node000005"><a xlink:title=" ">
<path fill="none" stroke="#63b8ff" d="M195.8,-134.93C213.23,-138.81 239.28,-144.58 262,-149.5 319.62,-161.97 385.92,-175.98 429.92,-185.22"/>
<polygon fill="#63b8ff" stroke="#63b8ff" points="429.27,-188.66 439.78,-187.29 430.71,-181.81 429.27,-188.66"/>
</a>
</g>
</g>
<!-- Node11 -->
<g id="Node000011" class="node">
<title>Node11</title>
<g id="a_Node000011"><a xlink:href="group__ktos__core.html#ga6580b57b65ece0e7bfcc48823db105f3" target="_top" xlink:title="Start the KTOS scheduler. Never returns.">
<polygon fill="white" stroke="#666666" points="354.5,-140 279.5,-140 279.5,-121 354.5,-121 354.5,-140"/>
<text text-anchor="middle" x="317" y="-128" font-family="Helvetica,sans-Serif" font-size="10.00">ktos_RunOS</text>
</a>
</g>
</g>
<!-- Node3&#45;&gt;Node11 -->
<g id="edge12_Node000003_Node000011" class="edge">
<title>Node3&#45;&gt;Node11</title>
<g id="a_edge12_Node000003_Node000011"><a xlink:title=" ">
<path fill="none" stroke="#63b8ff" d="M195.76,-130.5C214.77,-130.5 244.24,-130.5 269.24,-130.5"/>
<polygon fill="#63b8ff" stroke="#63b8ff" points="269.28,-134 279.28,-130.5 269.28,-127 269.28,-134"/>
</a>
</g>
</g>
<!-- Node17 -->
<g id="Node000017" class="node">
<title>Node17</title>
<g id="a_Node000017"><a xlink:href="ktos_8c.html#abdccd1793b29f0ab71047c522a9fb262" target="_top" xlink:title=" ">
<polygon fill="white" stroke="#666666" points="523.5,-57 436.5,-57 436.5,-38 523.5,-38 523.5,-57"/>
<text text-anchor="middle" x="480" y="-45" font-family="Helvetica,sans-Serif" font-size="10.00">ktos_SendMsg</text>
</a>
</g>
</g>
<!-- Node3&#45;&gt;Node17 -->
<g id="edge22_Node000003_Node000017" class="edge">
<title>Node3&#45;&gt;Node17</title>
<g id="a_edge22_Node000003_Node000017"><a xlink:title=" ">
<path fill="none" stroke="#63b8ff" d="M195.51,-124.86C235.35,-113.37 328.99,-86.58 408,-65.5 415.35,-63.54 423.14,-61.51 430.76,-59.56"/>
<polygon fill="#63b8ff" stroke="#63b8ff" points="431.81,-62.9 440.63,-57.04 430.08,-56.12 431.81,-62.9"/>
</a>
</g>
</g>
<!-- Node18 -->
<g id="Node000018" class="node">
<title>Node18</title>
<g id="a_Node000018"><a xlink:href="ktos__multi_8c.html#a161041827d36e1daec9539403c87c20e" target="_top" xlink:title=" ">
<polygon fill="white" stroke="#666666" points="372,-38 262,-38 262,-19 372,-19 372,-38"/>
<text text-anchor="middle" x="317" y="-26" font-family="Helvetica,sans-Serif" font-size="10.00">ktos_TaskMainProc</text>
</a>
</g>
</g>
<!-- Node3&#45;&gt;Node18 -->
<g id="edge25_Node000003_Node000018" class="edge">
<title>Node3&#45;&gt;Node18</title>
<g id="a_edge25_Node000003_Node000018"><a xlink:title=" ">
<path fill="none" stroke="#63b8ff" d="M189.17,-120.9C213.35,-103.29 265.04,-65.63 294.42,-44.23"/>
<polygon fill="#63b8ff" stroke="#63b8ff" points="296.74,-46.86 302.76,-38.14 292.62,-41.2 296.74,-46.86"/>
</a>
</g>
</g>
<!-- Node5&#45;&gt;Node4 -->
<g id="edge9_Node000005_Node000004" class="edge">
<title>Node5&#45;&gt;Node4</title>
<g id="a_edge9_Node000005_Node000004"><a xlink:title=" ">
<path fill="none" stroke="#63b8ff" d="M520.28,-197.75C584.91,-201.45 714.05,-208.84 789.49,-213.15"/>
<polygon fill="#63b8ff" stroke="#63b8ff" points="789.58,-216.66 799.76,-213.74 789.98,-209.67 789.58,-216.66"/>
</a>
</g>
</g>
<!-- Node6 -->
<g id="Node000006" class="node">
<title>Node6</title>
<g id="a_Node000006"><a xlink:href="ktos_8c.html#a0472bc90096e9ce7acb6b8aebc9b127b" target="_top" xlink:title="Default exit handler called when a task function returns.">
<polygon fill="white" stroke="#666666" points="746,-169 588,-169 588,-150 746,-150 746,-169"/>
<text text-anchor="middle" x="667" y="-157" font-family="Helvetica,sans-Serif" font-size="10.00">ktos_DefaultTaskExitHandler</text>
</a>
</g>
</g>
<!-- Node5&#45;&gt;Node6 -->
<g id="edge5_Node000005_Node000006" class="edge">
<title>Node5&#45;&gt;Node6</title>
<g id="a_edge5_Node000005_Node000006"><a xlink:title=" ">
<path fill="none" stroke="#63b8ff" d="M520.23,-187.87C545.36,-182.98 578.44,-176.54 606.74,-171.03"/>
<polygon fill="#63b8ff" stroke="#63b8ff" points="607.78,-174.4 616.92,-169.05 606.44,-167.52 607.78,-174.4"/>
</a>
</g>
</g>
<!-- Node9 -->
<g id="Node000009" class="node">
<title>Node9</title>
<g id="a_Node000009"><a xlink:href="group__ktos__hal.html#ga73dd6050479b4a96fb2f604c7fbc3e3a" target="_top" xlink:title="Set up the initial stack frame for a new task.">
<polygon fill="white" stroke="#666666" points="731,-132 603,-132 603,-113 731,-113 731,-132"/>
<text text-anchor="middle" x="667" y="-120" font-family="Helvetica,sans-Serif" font-size="10.00">ktos_hal_InitTaskStack</text>
</a>
</g>
</g>
<!-- Node5&#45;&gt;Node9 -->
<g id="edge10_Node000005_Node000009" class="edge">
<title>Node5&#45;&gt;Node9</title>
<g id="a_edge10_Node000005_Node000009"><a xlink:title=" ">
<path fill="none" stroke="#63b8ff" d="M520.03,-189.56C530.84,-186.88 542.27,-183.03 552,-177.5 571.67,-166.32 568.28,-152.59 588,-141.5 592,-139.25 596.27,-137.26 600.66,-135.51"/>
<polygon fill="#63b8ff" stroke="#63b8ff" points="602.18,-138.68 610.43,-132.04 599.84,-132.09 602.18,-138.68"/>
</a>
</g>
</g>
<!-- Node6&#45;&gt;Node4 -->
<g id="edge7_Node000006_Node000004" class="edge">
<title>Node6&#45;&gt;Node4</title>
<g id="a_edge7_Node000006_Node000004"><a xlink:title=" ">
<path fill="none" stroke="#63b8ff" d="M699.53,-169.09C713.75,-173.44 730.73,-178.68 746,-183.5 766.86,-190.08 790.06,-197.58 809.06,-203.76"/>
<polygon fill="#63b8ff" stroke="#63b8ff" points="807.98,-207.09 818.58,-206.86 810.15,-200.43 807.98,-207.09"/>
</a>
</g>
</g>
<!-- Node7 -->
<g id="Node000007" class="node">
<title>Node7</title>
<g id="a_Node000007"><a xlink:href="group__ktos__core.html#ga77b699103f3ec266c0d79d849ead8c1c" target="_top" xlink:title="Printf&#45;style debug logging (active only when DEBUG == 1).">
<polygon fill="white" stroke="#666666" points="899.5,-169 798.5,-169 798.5,-150 899.5,-150 899.5,-169"/>
<text text-anchor="middle" x="849" y="-157" font-family="Helvetica,sans-Serif" font-size="10.00">ktos_DebugPrintf</text>
</a>
</g>
</g>
<!-- Node6&#45;&gt;Node7 -->
<g id="edge6_Node000006_Node000007" class="edge">
<title>Node6&#45;&gt;Node7</title>
<g id="a_edge6_Node000006_Node000007"><a xlink:title=" ">
<path fill="none" stroke="#63b8ff" d="M746.17,-159.5C760.3,-159.5 774.84,-159.5 788.34,-159.5"/>
<polygon fill="#63b8ff" stroke="#63b8ff" points="788.44,-163 798.44,-159.5 788.44,-156 788.44,-163"/>
</a>
</g>
</g>
<!-- Node8 -->
<g id="Node000008" class="node">
<title>Node8</title>
<g id="a_Node000008"><a xlink:href="group__ktos__hal.html#gab41a95b0bdad0b96dd0957bb95e087bc" target="_top" xlink:title="Perform a cooperative context switch between two execution contexts.">
<polygon fill="white" stroke="#666666" points="916,-95 782,-95 782,-76 916,-76 916,-95"/>
<text text-anchor="middle" x="849" y="-83" font-family="Helvetica,sans-Serif" font-size="10.00">ktos_hal_ContextSwitch</text>
</a>
</g>
</g>
<!-- Node6&#45;&gt;Node8 -->
<g id="edge8_Node000006_Node000008" class="edge">
<title>Node6&#45;&gt;Node8</title>
<g id="a_edge8_Node000006_Node000008"><a xlink:title=" ">
<path fill="none" stroke="#63b8ff" d="M726.52,-149.99C733.32,-147.74 739.97,-144.95 746,-141.5 766.19,-129.95 762.04,-115.45 782,-103.5 784.85,-101.79 787.87,-100.24 790.99,-98.84"/>
<polygon fill="#63b8ff" stroke="#63b8ff" points="792.54,-101.98 800.54,-95.04 789.96,-95.48 792.54,-101.98"/>
</a>
</g>
</g>
<!-- Node10 -->
<g id="Node000010" class="node">
<title>Node10</title>
<g id="a_Node000010"><a xlink:href="esp8266_2ktos__bsp_8c.html#ad0087b08af4998a5440320140fb300a6" target="_top" xlink:title=" ">
<polygon fill="white" stroke="#666666" points="899.5,-132 798.5,-132 798.5,-113 899.5,-113 899.5,-132"/>
<text text-anchor="middle" x="849" y="-120" font-family="Helvetica,sans-Serif" font-size="10.00">ktos_task_launch</text>
</a>
</g>
</g>
<!-- Node9&#45;&gt;Node10 -->
<g id="edge11_Node000009_Node000010" class="edge">
<title>Node9&#45;&gt;Node10</title>
<g id="a_edge11_Node000009_Node000010"><a xlink:title=" ">
<path fill="none" stroke="#63b8ff" d="M731.21,-122.5C749.67,-122.5 769.79,-122.5 788.04,-122.5"/>
<polygon fill="#63b8ff" stroke="#63b8ff" points="788.26,-126 798.26,-122.5 788.26,-119 788.26,-126"/>
</a>
</g>
</g>
<!-- Node11&#45;&gt;Node4 -->
<g id="edge13_Node000011_Node000004" class="edge">
<title>Node11&#45;&gt;Node4</title>
<g id="a_edge13_Node000011_Node000004"><a xlink:title=" ">
<path fill="none" stroke="#63b8ff" d="M324.53,-140.12C337.73,-158.64 369.64,-198.76 408,-214.5 539.92,-268.63 713.39,-244.88 797.68,-228.05"/>
<polygon fill="#63b8ff" stroke="#63b8ff" points="798.42,-231.47 807.51,-226.04 797.01,-224.62 798.42,-231.47"/>
</a>
</g>
</g>
<!-- Node12 -->
<g id="Node000012" class="node">
<title>Node12</title>
<g id="a_Node000012"><a xlink:href="group__ktos__hal.html#gae42df35bd10d7d6b296be9687d436a32" target="_top" xlink:title="Configure and start the 1 ms system tick timer.">
<polygon fill="white" stroke="#666666" points="552,-131 408,-131 408,-112 552,-112 552,-131"/>
<text text-anchor="middle" x="480" y="-119" font-family="Helvetica,sans-Serif" font-size="10.00">ktos_hal_InitSystemTimer</text>
</a>
</g>
</g>
<!-- Node11&#45;&gt;Node12 -->
<g id="edge14_Node000011_Node000012" class="edge">
<title>Node11&#45;&gt;Node12</title>
<g id="a_edge14_Node000011_Node000012"><a xlink:title=" ">
<path fill="none" stroke="#63b8ff" d="M354.53,-128.46C367.35,-127.74 382.31,-126.91 397.32,-126.07"/>
<polygon fill="#63b8ff" stroke="#63b8ff" points="397.91,-129.54 407.7,-125.49 397.52,-122.55 397.91,-129.54"/>
</a>
</g>
</g>
<!-- Node13 -->
<g id="Node000013" class="node">
<title>Node13</title>
<g id="a_Node000013"><a xlink:href="ktos_8c.html#ae0e8182ad311d004e6d96f8d42a70501" target="_top" xlink:title="Round&#45;robin cooperative scheduler — runs on the OS stack.">
<polygon fill="white" stroke="#666666" points="528.5,-94 431.5,-94 431.5,-75 528.5,-75 528.5,-94"/>
<text text-anchor="middle" x="480" y="-82" font-family="Helvetica,sans-Serif" font-size="10.00">ktos_SwitchTask</text>
</a>
</g>
</g>
<!-- Node11&#45;&gt;Node13 -->
<g id="edge15_Node000011_Node000013" class="edge">
<title>Node11&#45;&gt;Node13</title>
<g id="a_edge15_Node000011_Node000013"><a xlink:title=" ">
<path fill="none" stroke="#63b8ff" d="M347.47,-120.9C364.99,-115.3 387.68,-108.23 408,-102.5 415.07,-100.51 422.56,-98.5 429.93,-96.58"/>
<polygon fill="#63b8ff" stroke="#63b8ff" points="431.02,-99.91 439.84,-94.03 429.28,-93.13 431.02,-99.91"/>
</a>
</g>
</g>
<!-- Node16 -->
<g id="Node000016" class="node">
<title>Node16</title>
<g id="a_Node000016"><a xlink:href="ktos_8c.html#a2a3876653c789ddcd5a9ccf968d98fe0" target="_top" xlink:title="1 ms system tick interrupt handler.">
<polygon fill="white" stroke="#666666" points="544.5,-168 415.5,-168 415.5,-149 544.5,-149 544.5,-168"/>
<text text-anchor="middle" x="480" y="-156" font-family="Helvetica,sans-Serif" font-size="10.00">ktos_timer_irq_handler</text>
</a>
</g>
</g>
<!-- Node11&#45;&gt;Node16 -->
<g id="edge21_Node000011_Node000016" class="edge">
<title>Node11&#45;&gt;Node16</title>
<g id="a_edge21_Node000011_Node000016"><a xlink:title=" ">
<path fill="none" stroke="#63b8ff" d="M354.53,-136.85C372.23,-139.93 394.02,-143.72 414.4,-147.27"/>
<polygon fill="#63b8ff" stroke="#63b8ff" points="413.81,-150.72 424.26,-148.98 415.01,-143.82 413.81,-150.72"/>
</a>
</g>
</g>
<!-- Node13&#45;&gt;Node6 -->
<g id="edge16_Node000013_Node000006" class="edge">
<title>Node13&#45;&gt;Node6</title>
<g id="a_edge16_Node000013_Node000006"><a xlink:title=" ">
<path fill="none" stroke="#63b8ff" d="M528.73,-92.55C536.82,-95.03 544.9,-98.27 552,-102.5 572.27,-114.56 567.6,-129.65 588,-141.5 591.04,-143.26 594.23,-144.85 597.53,-146.29"/>
<polygon fill="#63b8ff" stroke="#63b8ff" points="596.44,-149.62 607.03,-149.93 598.95,-143.08 596.44,-149.62"/>
</a>
</g>
</g>
<!-- Node13&#45;&gt;Node8 -->
<g id="edge17_Node000013_Node000008" class="edge">
<title>Node13&#45;&gt;Node8</title>
<g id="a_edge17_Node000013_Node000008"><a xlink:title=" ">
<path fill="none" stroke="#63b8ff" d="M528.6,-84.63C590.29,-84.8 698.58,-85.09 771.78,-85.29"/>
<polygon fill="#63b8ff" stroke="#63b8ff" points="771.85,-88.79 781.86,-85.32 771.87,-81.79 771.85,-88.79"/>
</a>
</g>
</g>
<!-- Node13&#45;&gt;Node9 -->
<g id="edge20_Node000013_Node000009" class="edge">
<title>Node13&#45;&gt;Node9</title>
<g id="a_edge20_Node000013_Node000009"><a xlink:title=" ">
<path fill="none" stroke="#63b8ff" d="M527.68,-94.09C552.65,-99.22 583.56,-105.57 609.83,-110.96"/>
<polygon fill="#63b8ff" stroke="#63b8ff" points="609.15,-114.4 619.65,-112.98 610.56,-107.54 609.15,-114.4"/>
</a>
</g>
</g>
<!-- Node14 -->
<g id="Node000014" class="node">
<title>Node14</title>
<g id="a_Node000014"><a xlink:href="group__ktos__hal.html#ga13869e4884f47a98d8c9b2d9902d5eda" target="_top" xlink:title="Disable all maskable interrupts.">
<polygon fill="white" stroke="#666666" points="740.5,-19 593.5,-19 593.5,0 740.5,0 740.5,-19"/>
<text text-anchor="middle" x="667" y="-7" font-family="Helvetica,sans-Serif" font-size="10.00">ktos_hal_DisableInterrupts</text>
</a>
</g>
</g>
<!-- Node13&#45;&gt;Node14 -->
<g id="edge18_Node000013_Node000014" class="edge">
<title>Node13&#45;&gt;Node14</title>
<g id="a_edge18_Node000013_Node000014"><a xlink:title=" ">
<path fill="none" stroke="#63b8ff" d="M528.69,-75.64C536.79,-73.06 544.87,-69.74 552,-65.5 571.99,-53.6 567.81,-39.05 588,-27.5 591.2,-25.67 594.58,-24.02 598.07,-22.54"/>
<polygon fill="#63b8ff" stroke="#63b8ff" points="599.35,-25.8 607.48,-19.01 596.89,-19.25 599.35,-25.8"/>
</a>
</g>
</g>
<!-- Node15 -->
<g id="Node000015" class="node">
<title>Node15</title>
<g id="a_Node000015"><a xlink:href="group__ktos__hal.html#ga6741995a98c2dc4867a11717fa64efd8" target="_top" xlink:title="Re&#45;enable maskable interrupts.">
<polygon fill="white" stroke="#666666" points="738.5,-56 595.5,-56 595.5,-37 738.5,-37 738.5,-56"/>
<text text-anchor="middle" x="667" y="-44" font-family="Helvetica,sans-Serif" font-size="10.00">ktos_hal_EnableInterrupts</text>
</a>
</g>
</g>
<!-- Node13&#45;&gt;Node15 -->
<g id="edge19_Node000013_Node000015" class="edge">
<title>Node13&#45;&gt;Node15</title>
<g id="a_edge19_Node000013_Node000015"><a xlink:title=" ">
<path fill="none" stroke="#63b8ff" d="M527.68,-74.91C552.65,-69.78 583.56,-63.43 609.83,-58.04"/>
<polygon fill="#63b8ff" stroke="#63b8ff" points="610.56,-61.46 619.65,-56.02 609.15,-54.6 610.56,-61.46"/>
</a>
</g>
</g>
<!-- Node17&#45;&gt;Node14 -->
<g id="edge23_Node000017_Node000014" class="edge">
<title>Node17&#45;&gt;Node14</title>
<g id="a_edge23_Node000017_Node000014"><a xlink:title=" ">
<path fill="none" stroke="#63b8ff" d="M523.91,-38.69C549.39,-33.45 581.99,-26.76 609.54,-21.1"/>
<polygon fill="#63b8ff" stroke="#63b8ff" points="610.34,-24.51 619.44,-19.06 608.94,-17.65 610.34,-24.51"/>
</a>
</g>
</g>
<!-- Node17&#45;&gt;Node15 -->
<g id="edge24_Node000017_Node000015" class="edge">
<title>Node17&#45;&gt;Node15</title>
<g id="a_edge24_Node000017_Node000015"><a xlink:title=" ">
<path fill="none" stroke="#63b8ff" d="M523.91,-47.27C542.16,-47.17 564.07,-47.05 585.16,-46.94"/>
<polygon fill="#63b8ff" stroke="#63b8ff" points="585.45,-50.44 595.43,-46.88 585.41,-43.44 585.45,-50.44"/>
</a>
</g>
</g>
<!-- Node19 -->
<g id="Node000019" class="node">
<title>Node19</title>
<g id="a_Node000019"><a xlink:href="group__ktos__core.html#gaa3d9ea3cbeb12c3ce81ce4ad1be4b3e0" target="_top" xlink:title="Optional platform&#45;level system initialisation hook.">
<polygon fill="white" stroke="#666666" points="518,-20 442,-20 442,-1 518,-1 518,-20"/>
<text text-anchor="middle" x="480" y="-8" font-family="Helvetica,sans-Serif" font-size="10.00">ktos_InitSys</text>
</a>
</g>
</g>
<!-- Node18&#45;&gt;Node19 -->
<g id="edge26_Node000018_Node000019" class="edge">
<title>Node18&#45;&gt;Node19</title>
<g id="a_edge26_Node000018_Node000019"><a xlink:title=" ">
<path fill="none" stroke="#63b8ff" d="M372.06,-22.46C391.33,-20.3 412.87,-17.89 431.54,-15.81"/>
<polygon fill="#63b8ff" stroke="#63b8ff" points="432.04,-19.27 441.59,-14.68 431.26,-12.32 432.04,-19.27"/>
</a>
</g>
</g>
</g>
</svg>

<g id="navigator" transform="translate(0 0)" fill="#404254">
  <rect fill="#f2f5e9" fill-opacity="0.5" stroke="#606060" stroke-width=".5" x="0" y="0" width="60" height="60"/>
  <use id="zoomplus" xlink:href="#zoomPlus" x="17" y="9" onmousedown="handleZoom(evt,'in')"/>
  <use id="zoomminus" xlink:href="#zoomMin" x="42" y="9" onmousedown="handleZoom(evt,'out')"/>
  <use id="reset" xlink:href="#resetDef" x="30" y="36" onmousedown="handleReset()"/>
   <use id="arrowup" xlink:href="#arrowUp" x="0" y="0" onmousedown="handlePan(0,-1)"/>
  <use id="arrowright" xlink:href="#arrowRight" x="0" y="0" onmousedown="handlePan(1,0)"/>
  <use id="arrowdown" xlink:href="#arrowDown" x="0" y="0" onmousedown="handlePan(0,1)"/>
  <use id="arrowleft" xlink:href="#arrowLeft" x="0" y="0" onmousedown="handlePan(-1,0)"/>
</g>
<svg viewBox="0 0 15 15" width="100%" height="30px" preserveAspectRatio="xMaxYMin meet">
 <g id="arrow_out" transform="scale(0.3 0.3)">
  <a xlink:href="startup_8c_ae7ee340978f5c25f52f0cad1457c6616_cgraph_org.svg" target="_base">
   <rect id="button" ry="5" rx="5" y="6" x="6" height="38" width="38"
        fill="#f2f5e9" fill-opacity="0.5" stroke="#606060" stroke-width="1.0"/>
   <path id="arrow"
     d="M 11.500037,31.436501 C 11.940474,20.09759 22.043105,11.32322 32.158766,21.979434 L 37.068811,17.246167 C 37.068811,17.246167 37.088388,32 37.088388,32 L 22.160133,31.978069 C 22.160133,31.978069 26.997745,27.140456 26.997745,27.140456 C 18.528582,18.264221 13.291696,25.230495 11.500037,31.436501 z"
     style="fill:#404040;"/>
  </a>
 </g>
</svg>

<style type='text/css'>
<![CDATA[
[data-mouse-over-selected='false'] { opacity: 0.7; }
[data-mouse-over-selected='true']  { opacity: 1.0; }
]]>
</style>
<script type="application/ecmascript"><![CDATA[
document.addEventListener('DOMContentLoaded', (event) => {
  highlightEdges();
  highlightAdjacentNodes();
});
]]></script>
</svg>
