<?xml version="1.0" encoding="UTF-8" standalone="no"?>
<!DOCTYPE svg PUBLIC "-//W3C//DTD SVG 1.1//EN"
 "http://www.w3.org/Graphics/SVG/1.1/DTD/svg11.dtd">
<!-- Generated by graphviz version 2.43.0 (0)
 -->
<!-- Title: bsp/stm32g431/ktos_bsp.c Pages: 1 -->
<svg width="217pt" height="258pt"
 viewBox="0.00 0.00 216.50 258.00" xmlns="http://www.w3.org/2000/svg" xmlns:xlink="http://www.w3.org/1999/xlink">
<g id="graph0" class="graph" transform="scale(1 1) rotate(0) translate(4 254)">
<title>bsp/stm32g431/ktos_bsp.c</title>
<!-- Node1 -->
<g id="Node000001" class="node">
<title>Node1</title>
<g id="a_Node000001"><a xlink:title=" ">
<polygon fill="#999999" stroke="#666666" points="121.5,-250 5.5,-250 5.5,-220 121.5,-220 121.5,-250"/>
<text text-anchor="start" x="13.5" y="-238" font-family="Helvetica,sans-Serif" font-size="10.00">bsp/stm32g431/ktos</text>
<text text-anchor="middle" x="63.5" y="-227" font-family="Helvetica,sans-Serif" font-size="10.00">_bsp.c</text>
</a>
</g>
</g>
<!-- Node2 -->
<g id="Node000002" class="node">
<title>Node2</title>
<g id="a_Node000002"><a xlink:title=" ">
<polygon fill="#e0e0e0" stroke="#999999" points="53,-19 0,-19 0,0 53,0 53,-19"/>
<text text-anchor="middle" x="26.5" y="-7" font-family="Helvetica,sans-Serif" font-size="10.00">stdint.h</text>
</a>
</g>
</g>
<!-- Node1&#45;&gt;Node2 -->
<g id="edge1_Node000001_Node000002" class="edge">
<title>Node1&#45;&gt;Node2</title>
<g id="a_edge1_Node000001_Node000002"><a xlink:title=" ">
<path fill="none" stroke="#63b8ff" d="M61.13,-219.68C54.69,-180.76 36.86,-73.07 29.62,-29.33"/>
<polygon fill="#63b8ff" stroke="#63b8ff" points="33.03,-28.53 27.95,-19.23 26.13,-29.67 33.03,-28.53"/>
</a>
</g>
</g>
<!-- Node3 -->
<g id="Node000003" class="node">
<title>Node3</title>
<g id="a_Node000003"><a xlink:href="ktos_8h.html" target="_top" xlink:title="KTOS public API — include this in your application code.">
<polygon fill="white" stroke="#666666" points="137,-129 90,-129 90,-110 137,-110 137,-129"/>
<text text-anchor="middle" x="113.5" y="-117" font-family="Helvetica,sans-Serif" font-size="10.00">ktos.h</text>
</a>
</g>
</g>
<!-- Node1&#45;&gt;Node3 -->
<g id="edge2_Node000001_Node000003" class="edge">
<title>Node1&#45;&gt;Node3</title>
<g id="a_edge2_Node000001_Node000003"><a xlink:title=" ">
<path fill="none" stroke="#63b8ff" d="M65.95,-219.76C68.75,-205.45 74.06,-183 82.5,-165 87.09,-155.21 93.8,-145.26 99.8,-137.25"/>
<polygon fill="#63b8ff" stroke="#63b8ff" points="102.73,-139.18 106.13,-129.15 97.21,-134.88 102.73,-139.18"/>
</a>
</g>
</g>
<!-- Node7 -->
<g id="Node000007" class="node">
<title>Node7</title>
<g id="a_Node000007"><a xlink:href="ktos__hal_8h.html" target="_top" xlink:title="KTOS Hardware Abstraction Layer (HAL) interface.">
<polygon fill="white" stroke="#666666" points="159,-184 92,-184 92,-165 159,-165 159,-184"/>
<text text-anchor="middle" x="125.5" y="-172" font-family="Helvetica,sans-Serif" font-size="10.00">ktos_hal.h</text>
</a>
</g>
</g>
<!-- Node1&#45;&gt;Node7 -->
<g id="edge8_Node000001_Node000007" class="edge">
<title>Node1&#45;&gt;Node7</title>
<g id="a_edge8_Node000001_Node000007"><a xlink:title=" ">
<path fill="none" stroke="#63b8ff" d="M78.51,-219.84C87.69,-211.17 99.45,-200.08 108.91,-191.15"/>
<polygon fill="#63b8ff" stroke="#63b8ff" points="111.34,-193.67 116.21,-184.27 106.53,-188.58 111.34,-193.67"/>
</a>
</g>
</g>
<!-- Node4 -->
<g id="Node000004" class="node">
<title>Node4</title>
<g id="a_Node000004"><a xlink:title=" ">
<polygon fill="#e0e0e0" stroke="#999999" points="208.5,-19 146.5,-19 146.5,0 208.5,0 208.5,-19"/>
<text text-anchor="middle" x="177.5" y="-7" font-family="Helvetica,sans-Serif" font-size="10.00">stdbool.h</text>
</a>
</g>
</g>
<!-- Node3&#45;&gt;Node4 -->
<g id="edge3_Node000003_Node000004" class="edge">
<title>Node3&#45;&gt;Node4</title>
<g id="a_edge3_Node000003_Node000004"><a xlink:title=" ">
<path fill="none" stroke="#63b8ff" d="M125.09,-109.84C135.27,-101.66 149.79,-88.51 158.5,-74 166.83,-60.13 171.74,-42.33 174.48,-29.11"/>
<polygon fill="#63b8ff" stroke="#63b8ff" points="177.92,-29.74 176.29,-19.27 171.04,-28.47 177.92,-29.74"/>
</a>
</g>
</g>
<!-- Node5 -->
<g id="Node000005" class="node">
<title>Node5</title>
<g id="a_Node000005"><a xlink:href="ktos__common_8h.html" target="_top" xlink:title="Portable primitive types, constants, and utility prototypes used throughout the KTOS kernel and all B...">
<polygon fill="white" stroke="#666666" points="149,-74 54,-74 54,-55 149,-55 149,-74"/>
<text text-anchor="middle" x="101.5" y="-62" font-family="Helvetica,sans-Serif" font-size="10.00">ktos_common.h</text>
</a>
</g>
</g>
<!-- Node3&#45;&gt;Node5 -->
<g id="edge4_Node000003_Node000005" class="edge">
<title>Node3&#45;&gt;Node5</title>
<g id="a_edge4_Node000003_Node000005"><a xlink:title=" ">
<path fill="none" stroke="#63b8ff" d="M111.52,-109.75C109.93,-102.72 107.64,-92.62 105.65,-83.84"/>
<polygon fill="#63b8ff" stroke="#63b8ff" points="109.07,-83.07 103.44,-74.09 102.24,-84.62 109.07,-83.07"/>
</a>
</g>
</g>
<!-- Node5&#45;&gt;Node2 -->
<g id="edge5_Node000005_Node000002" class="edge">
<title>Node5&#45;&gt;Node2</title>
<g id="a_edge5_Node000005_Node000002"><a xlink:title=" ">
<path fill="none" stroke="#63b8ff" d="M89.45,-54.98C78.04,-46.92 60.67,-34.65 47.07,-25.03"/>
<polygon fill="#63b8ff" stroke="#63b8ff" points="48.96,-22.08 38.77,-19.17 44.92,-27.8 48.96,-22.08"/>
</a>
</g>
</g>
<!-- Node5&#45;&gt;Node4 -->
<g id="edge7_Node000005_Node000004" class="edge">
<title>Node5&#45;&gt;Node4</title>
<g id="a_edge7_Node000005_Node000004"><a xlink:title=" ">
<path fill="none" stroke="#63b8ff" d="M113.71,-54.98C125.28,-46.92 142.88,-34.65 156.66,-25.03"/>
<polygon fill="#63b8ff" stroke="#63b8ff" points="158.87,-27.76 165.07,-19.17 154.86,-22.02 158.87,-27.76"/>
</a>
</g>
</g>
<!-- Node6 -->
<g id="Node000006" class="node">
<title>Node6</title>
<g id="a_Node000006"><a xlink:title=" ">
<polygon fill="#e0e0e0" stroke="#999999" points="128.5,-19 72.5,-19 72.5,0 128.5,0 128.5,-19"/>
<text text-anchor="middle" x="100.5" y="-7" font-family="Helvetica,sans-Serif" font-size="10.00">stddef.h</text>
</a>
</g>
</g>
<!-- Node5&#45;&gt;Node6 -->
<g id="edge6_Node000005_Node000006" class="edge">
<title>Node5&#45;&gt;Node6</title>
<g id="a_edge6_Node000005_Node000006"><a xlink:title=" ">
<path fill="none" stroke="#63b8ff" d="M101.33,-54.75C101.2,-47.8 101.02,-37.85 100.85,-29.13"/>
<polygon fill="#63b8ff" stroke="#63b8ff" points="104.35,-29.02 100.66,-19.09 97.35,-29.15 104.35,-29.02"/>
</a>
</g>
</g>
<!-- Node7&#45;&gt;Node3 -->
<g id="edge9_Node000007_Node000003" class="edge">
<title>Node7&#45;&gt;Node3</title>
<g id="a_edge9_Node000007_Node000003"><a xlink:title=" ">
<path fill="none" stroke="#63b8ff" d="M123.52,-164.75C121.93,-157.72 119.64,-147.62 117.65,-138.84"/>
<polygon fill="#63b8ff" stroke="#63b8ff" points="121.07,-138.07 115.44,-129.09 114.24,-139.62 121.07,-138.07"/>
</a>
</g>
</g>
</g>
</svg>
